<svg xmlns:mydata="http://www.w3.org/2000/svg" mydata:contrastcolor="f5cdd9" mydata:template="InvertedHex1" mydata:presentation="2.5" mydata:layouttype="undefined" mydata:specialfontid="undefined" mydata:id1="034" mydata:id2="034" mydata:companyname="anime views" mydata:companytagline="" version="1.1" xmlns="http://www.w3.org/2000/svg" xmlns:xlink="http://www.w3.org/1999/xlink" viewBox="0 0 550 470" style="height: 785px;"><g fill="#ffffff" fill-rule="none" stroke="none" stroke-width="1" stroke-linecap="butt" stroke-linejoin="miter" stroke-miterlimit="10" stroke-dasharray="" stroke-dashoffset="0" font-family="none" font-weight="none" font-size="none" text-anchor="none" style="mix-blend-mode: normal"><g data-paper-data="{&quot;isGlobalGroup&quot;:true,&quot;bounds&quot;:{&quot;x&quot;:145.99966824534854,&quot;y&quot;:106.00000000000001,&quot;width&quot;:258.00066350930297,&quot;height&quot;:258}}"><g data-paper-data="{&quot;fillRule&quot;:&quot;evenodd&quot;,&quot;fillRuleOriginal&quot;:&quot;evenodd&quot;,&quot;isIcon&quot;:true,&quot;iconStyle&quot;:&quot;standalone&quot;,&quot;selectedEffects&quot;:{&quot;container&quot;:&quot;enclosed_circle_outline3&quot;,&quot;transformation&quot;:&quot;&quot;,&quot;pattern&quot;:&quot;&quot;},&quot;bounds&quot;:{&quot;x&quot;:201.3844959258104,&quot;y&quot;:158.8912649330925,&quot;width&quot;:147.230368183791,&quot;height&quot;:151.65926923598334},&quot;widthRatioIconToContainer&quot;:0.6097942262598409,&quot;heightRatioIconToContainer&quot;:0.9999999999999998,&quot;relativeBoundsIconToContainer&quot;:{&quot;top&quot;:-1.2094344438469788e-16,&quot;left&quot;:0.02912743408138257},&quot;iconType&quot;:&quot;icon&quot;,&quot;rawIconId&quot;:&quot;ed6ef429-dae6-44b3-b364-7d6b415fff1d&quot;,&quot;isSvgStockIcon&quot;:true,&quot;combineTerms&quot;:&quot;anime&quot;,&quot;combineTermsExtended&quot;:{&quot;icon&quot;:[&quot;anime&quot;]},&quot;isDetailed&quot;:false,&quot;blockLetter&quot;:&quot;O&quot;,&quot;suitableAsStandaloneIcon&quot;:true}" fill-rule="evenodd" id="element-id-26260"><path d="M252.38288,242.9958c1.83212,-0.59256 3.52971,-1.14347 5.29136,-1.71681c-1.26839,-1.10183 -2.43749,-2.11399 -3.66424,-3.18058c-0.5349,-1.81931 -1.07941,-3.68345 -1.65595,-5.6437c-0.07047,-0.05125 -0.2082,-0.19538 -0.37796,-0.26905c-3.60658,-1.61111 -5.42909,-4.61874 -6.42843,-8.24774c-0.40037,-1.45096 0.30109,-3.55213 1.4894,-4.60592c0.67904,1.51502 1.34206,3.00122 2.00508,4.48741c0.08648,-0.01602 0.17296,-0.03203 0.26264,-0.04805v-5.36824c-0.10986,0.02819 -0.22004,0.05701 -0.33055,0.08584c-1.05668,0.27706 -2.14474,0.56213 -3.21198,0.35617c-0.20179,-0.7399 -0.33952,-1.39652 -0.55733,-2.0243c-0.72388,-2.07875 -0.73349,-4.22796 -0.54131,-6.36117c0.20179,-2.22609 0.58615,-4.43616 0.94809,-6.64623c0.08328,-0.51569 0.40038,-0.99614 0.62139,-1.52143c-0.60216,-0.87122 -1.27159,-1.83532 -1.93782,-2.80583c-0.91285,-1.33566 -1.8161,-2.67771 -2.72896,-4.01337c-0.03363,-0.04932 -0.06951,-0.09833 -0.1057,-0.14766c-0.2415,-0.32928 -0.48749,-0.66431 -0.08328,-1.1912c1.43815,0.63419 2.8827,1.27159 4.47139,1.97305c0.0394,-0.79531 -0.23318,-1.41701 -0.49262,-2.00957c-0.164,-0.37379 -0.32286,-0.73637 -0.39461,-1.12298c-0.18258,-0.98012 -0.50287,-1.93782 -0.66943,-2.92114c-0.17296,-1.02817 -0.25304,-2.07555 -0.33631,-3.11652c-0.08648,-1.04097 -0.15374,-2.08836 -0.18578,-3.13254c-0.02883,-0.99614 -0.05445,-1.99868 0.01922,-2.99161c0.07367,-1.00574 0.27546,-1.99868 0.51889,-3.01403c1.13067,2.83786 2.556,5.46112 4.54186,7.84095c1.84494,-7.39253 4.39452,-14.35266 7.73846,-21.40568c0.79755,1.33245 0.55733,2.5624 0.92567,3.6258c0.37154,1.07301 0.61818,2.19085 0.94488,3.28308c0.33631,1.13066 0.70145,2.25492 1.11144,3.57135c0.28507,-0.39717 0.46764,-0.6406 0.6374,-0.89684c3.05247,-4.55147 6.26508,-8.97802 10.2272,-12.79921c0.73348,-0.70786 1.58228,-1.29401 2.61365,-2.12679c0,0.22226 0.00673,0.40476 0.01217,0.56062c0.01025,0.27767 0.0173,0.47074 -0.02178,0.65332c-0.31069,1.44135 -0.68865,2.86669 -0.97371,4.31445c-0.34593,1.75844 -0.56053,3.53932 -0.65662,5.56041c7.48222,-4.69241 15.23348,-8.27336 23.41716,-11.0888c-2.20687,3.3087 -3.11652,7.11387 -4.51624,10.70124c0.11211,0.47725 0.4292,0.60216 0.85841,0.58615c3.76032,-0.14093 7.52065,-0.24022 11.27778,-0.4324c3.23504,-0.16335 6.46367,-0.426 9.69549,-0.65982c0.49646,-0.03524 0.98973,-0.15374 1.74564,-0.27226c-2.54639,3.4016 -4.95825,6.55335 -7.63596,9.49691c-0.38116,0.4196 -0.79755,0.81677 -1.24597,1.1691c-0.3139,0.24663 -0.70466,0.40037 -1.11144,0.51889c2.68733,-3.34714 5.6469,-6.44124 8.15806,-10.16954c-1.15949,0.07367 -2.13961,0.07688 -3.10051,0.20179c-3.64182,0.47405 -7.30605,0.55733 -10.97029,0.64701c-1.94743,0.04805 -3.89806,0.07367 -5.84549,0.15694c-0.75271,0.03203 -1.4958,0.19218 -2.33819,0.30749c-0.08968,-0.44522 -0.19538,-0.98012 -0.33952,-1.68798c1.33565,-3.04285 2.00508,-6.5021 3.9461,-9.50652c-5.9768,2.19085 -16.40579,7.06583 -21.89894,10.86139c-0.14413,0.4196 -0.30749,0.90004 -0.57013,1.66877c-0.57974,-1.72165 -0.35329,-3.28135 -0.13517,-4.78311c0.06631,-0.45674 0.13165,-0.90811 0.1736,-1.35705c0.18257,-1.96344 0.76552,-3.88845 1.1787,-5.8647c-2.46951,1.23316 -10.69803,11.68456 -12.5846,15.62426c-0.45803,-0.4228 -0.67583,-0.89684 -0.78794,-1.52143c-0.16976,-0.92887 -0.54131,-1.8225 -0.80395,-2.73536c-0.40678,-1.41573 -0.79434,-2.83786 -1.18831,-4.2568c-0.13453,-0.48365 -0.25304,-0.96731 -0.66302,-1.4958c-0.4228,1.03137 -0.89684,2.04672 -1.26199,3.10051c-1.54065,4.44897 -3.05246,8.91076 -4.55788,13.37254c-0.24343,0.72068 -0.43881,1.46378 -0.56053,2.21328c-0.18257,1.12425 -0.31069,2.26452 0.67263,3.5233c-0.95129,-0.23382 -1.25878,-0.68545 -1.55025,-1.14027c-1.43175,-2.21648 -2.85708,-4.43936 -4.39452,-6.82881c-0.18258,5.4355 0.19218,10.63718 2.25812,15.75878c0.19218,0.14093 0.51248,0.38116 1.03777,0.77192c-2.09476,-0.1025 -3.66423,-1.01535 -5.42268,-1.54705c1.30683,2.00188 2.61365,4.00055 3.96532,6.06649c1.77767,-0.22741 3.50089,-0.5349 5.24012,-0.65021c5.51877,-0.37155 11.02795,-0.40037 16.54032,0.3235c2.57842,0.33952 5.20168,0.3267 7.80572,0.48045c0.426,0.02562 0.84879,0.1025 1.27479,0.13773c3.94931,0.33311 7.84736,0.91286 11.59487,2.27093c0.10378,0.03748 0.22389,0.02883 0.37411,0.01858c0.08136,-0.00576 0.17168,-0.01217 0.2729,-0.01217c-0.98973,-1.7072 -2.16523,-3.20941 -2.65209,-5.07996c1.23316,1.82251 2.46631,3.64502 3.7315,5.51557c0.3267,0.18258 0.69825,0.39077 1.04097,0.58295c0.16655,1.16589 1.71361,3.61299 3.60338,5.6565c0.13388,-1.57459 0.01185,-3.06047 -0.10794,-4.5204c-0.05509,-0.66911 -0.10954,-1.33309 -0.13869,-1.99772c-0.09288,-2.09796 -0.01922,-4.20234 0.08648,-6.31312c0.68224,2.37022 0.34273,4.85895 0.83278,7.38613c3.78915,4.52905 8.07477,8.80186 11.57566,13.86261c-0.19858,0.06085 -0.46763,0.14093 -0.75591,0.23061c-0.69185,1.34206 -1.39331,2.69053 -2.08196,4.0486c-0.1025,0.205 -0.16655,0.45163 -0.17937,0.67904c-0.16015,2.78662 -1.76806,4.75006 -3.68986,6.53733c-0.09577,0.08904 -0.19859,0.17264 -0.30076,0.25592c-0.40871,0.33375 -0.80363,0.65597 -0.68577,1.24308c-1.96344,1.82251 -3.86603,3.58737 -5.95439,5.52198c-0.00128,0.00897 -0.01954,0.26713 -0.02883,0.39397c1.04738,0.56053 2.04031,1.00254 2.93075,1.59189c0.90324,0.59576 1.7072,1.34206 2.37983,1.88017c0.46252,1.89234 -0.20947,3.36028 -0.89267,4.85351c-0.18289,0.39974 -0.36642,0.80107 -0.52946,1.21298c0.69505,0.3299 1.32925,0.60857 1.94102,0.92887c0.3299,0.17296 0.79114,0.35553 0.90324,0.6438c0.50928,1.32284 1.77767,2.08196 2.36702,3.34074c0.56373,1.20433 1.23316,2.35741 1.86735,3.52971c0.60537,1.11785 0.88083,2.31578 0.81677,3.57456c-0.08648,1.704 -0.22741,3.408 -0.34593,5.14722c0.59576,0.62779 1.27159,1.34206 1.90259,2.00829c-0.70786,2.67131 -2.2357,5.92876 -3.39839,7.29004h-2.19085c-0.39717,-0.31389 -0.87762,-0.69185 -1.4926,-1.1787c-0.40038,0.57333 -0.76232,1.09543 -1.14988,1.64954c0.24983,0.36514 0.45803,0.66622 0.71747,1.04418c-0.65342,0.86481 -1.30683,1.72641 -1.96024,2.59123c0.04805,0.01922 0.09929,0.03844 0.14734,0.05765c-0.22741,0.75271 -0.45803,1.50542 -0.69505,2.28695v7.12989c0.82958,0.76552 1.73603,1.55986 1.925,2.8827c-0.08648,0.55413 -0.18257,1.1627 -0.27866,1.77447c0.11211,0.17296 0.18578,0.37155 0.3235,0.48686c1.72642,1.43815 2.35741,3.28629 2.00508,5.46433c-0.11467,0.70979 0.10794,1.319 0.33151,1.93109c0.06374,0.1752 0.1278,0.35073 0.18418,0.52881c0.03619,0.11627 0.08745,0.23286 0.13869,0.34881c0.09801,0.22229 0.19538,0.4433 0.18481,0.66014c-0.05766,1.28441 -0.20179,2.5624 -0.28827,3.84361c-0.09289,1.41572 -0.91606,2.51756 -1.74244,3.5137c-0.86801,1.04738 -2.23249,1.57268 -3.56494,1.58228c-1.25878,0.00962 -2.5592,-0.30428 -3.77634,-0.68544c-1.69759,-0.5349 -1.87376,-0.94809 -1.64954,-2.70013c0.06086,-0.46764 0.14734,-0.93208 0.21781,-1.39651c0.06085,-0.41639 0.11531,-0.83598 0.17937,-1.31003c0.98012,-0.82958 1.704,-1.85134 1.72642,-3.26386c0.24343,-0.33631 0.49646,-0.67903 0.78153,-1.073c0.03844,-0.36835 0.08648,-0.78794 0.13132,-1.20753c-0.38116,-0.51248 -0.7495,-1.00254 -1.07941,-1.44455c-0.31838,0 -0.63131,-0.0048 -0.93976,-0.00961c-0.66591,-0.01025 -1.31227,-0.02018 -1.95575,0.01922c-1.66236,0.1057 -2.91153,-0.39397 -3.35995,-2.15562c-2.5528,-1.0762 -3.87564,-3.3151 -5.32019,-5.4387c-0.2114,-0.31069 -0.426,-0.62459 -0.65982,-0.91926c-0.8584,-1.07941 -1.74564,-2.14281 -2.59123,-3.23183c-1.08582,-1.39971 -2.16523,-1.59509 -3.70588,-0.78153c-3.05566,1.61431 -5.61166,3.91728 -8.34382,5.9736c-0.38116,0.28507 -0.75911,0.57334 -1.15308,0.87442c-0.21781,-0.11851 -0.41639,-0.22742 -0.56053,-0.30429c-0.69505,0.78154 -1.38049,1.55026 -2.12679,2.38944c-1.09543,-0.27226 -2.12999,-0.52849 -3.29589,-0.81677c-1.20433,0.94489 -2.50475,1.96345 -3.84361,3.01403c0.17297,0.24022 0.32991,0.45803 0.54131,0.75591c-0.98332,0.63419 -1.85134,1.36448 -2.01149,2.6649c-0.24663,-0.12492 -0.48686,-0.24343 -0.88723,-0.44522c-0.23381,0.49326 -0.46443,0.98332 -0.70145,1.47018c-0.22741,0.46443 -0.46123,0.92567 -0.72708,1.45416c-1.45737,-0.4292 -2.82826,-0.47084 -4.18313,0.60857c0.39397,0.74309 0.77833,1.46057 1.12105,2.10437c0.8725,0.07239 1.22067,-0.40005 1.56179,-0.86321c0.14093,-0.19122 0.2809,-0.38116 0.45611,-0.53009c-0.07047,-0.18898 -0.13132,-0.35233 -0.22741,-0.61177c0.37475,-0.05445 0.73028,-0.1089 1.09543,-0.16335c0.00224,0.97211 -0.47084,1.6867 -0.93368,2.38527c-0.17136,0.25913 -0.34144,0.51569 -0.48526,0.78249c0.04164,0.35553 0.08008,0.68224 0.12171,1.05058c-0.30749,0.51249 -0.62139,1.03777 -0.90004,1.50542c-0.58616,0.11851 -1.07941,0.21461 -1.57908,0.3139c-1.37409,-0.48686 -2.38624,-1.51502 -3.43362,-2.48233c-1.01215,-0.93528 -2.05633,-1.78407 -3.25425,-2.51436c-2.08195,-1.26839 -3.83399,-2.95637 -5.1216,-5.07356c-0.26905,-0.44201 -0.57013,-0.85841 -0.97371,-1.46057c0.60537,-0.92567 1.25878,-1.9218 1.88017,-2.87309c0.32927,0.0016 0.65117,-0.01122 0.96602,-0.0237c1.05443,-0.04196 2.03263,-0.08072 2.96727,0.42728c0.24023,0.13132 0.55733,0.18258 0.83278,0.16976c1.38369,-0.05765 2.75138,-0.05765 4.05821,0.50607c0.07623,0.03171 0.17232,0.01602 0.28699,-0.0032c0.05862,-0.00961 0.12203,-0.02018 0.19026,-0.02562c0.14094,-0.4196 0.28507,-0.852 0.43561,-1.31323c0.57654,-0.13133 1.12105,-0.25624 1.64954,-0.37796c0.30429,-1.11144 0.93528,-1.82891 2.11719,-2.00508c0.44522,-0.52529 0.90004,-1.0634 1.39651,-1.64954c-0.44202,-0.5381 -0.85521,-1.04097 -1.30363,-1.58548c0.56693,-0.50287 1.073,-0.95129 1.64954,-1.46377c-0.73989,-2.16523 0.426,-3.4048 2.04672,-4.39772c0.72708,-0.44521 1.47659,-0.852 2.30937,-1.32604c0.14414,-1.93782 1.58548,-3.15816 3.00122,-4.48741c-1.19984,-1.50733 -0.82285,-3.08033 -0.4465,-4.65076c0.06246,-0.26169 0.12524,-0.52338 0.18065,-0.78474c0.09609,-0.45162 0.33311,-0.87441 0.55092,-1.42213c-0.6438,-0.20179 -1.20433,-0.44842 -1.79368,-0.54451c-1.4926,-0.24664 -2.7738,-0.98973 -4.03578,-1.73283c-0.44842,-0.26264 -0.82318,-0.78794 -1.03777,-1.27479c-0.30108,-0.68224 -0.4228,-1.44455 -0.6406,-2.24851c-1.14347,-0.38116 -2.26452,-0.75591 -3.60979,-1.20753c-1.04097,-1.8193 -0.91926,-3.9493 -0.62459,-6.21703c0.18898,-0.31069 0.43561,-0.71106 0.68224,-1.11464c-0.65021,-6.20742 -2.96598,-12.06572 -3.76673,-18.38524c0.25624,0.11851 0.56693,0.16015 0.66302,0.3235c0.18257,0.3203 0.3235,0.70466 0.34913,1.073c0.17937,2.72576 0.92247,5.33621 1.63033,7.94986c0.62139,2.29335 1.26519,4.5835 1.88017,6.88005c0.04485,0.16848 0.02722,0.35265 0.00929,0.53747c-0.00897,0.09257 -0.01793,0.18513 -0.0189,0.2761c-0.00224,0.22037 -0.0016,0.43945 -0.00064,0.67423c0.00032,0.12332 0.00064,0.25112 0.00064,0.38597c0.80075,-0.26585 1.42534,-0.47084 2.18125,-0.72068c-0.22101,-1.41573 -0.44522,-2.85708 -0.67263,-4.29843c-0.26585,-1.68798 -0.44843,-3.39839 -0.83278,-5.06075c-0.23061,-0.99934 -0.73989,-1.94743 -1.19472,-2.8827c-0.68865,-1.41252 -1.42854,-2.79943 -2.16843,-4.18633c-0.19538,-0.36835 -0.46764,-0.69825 -0.7431,-1.10183v-1.79688c0.78794,0.49006 1.43174,0.88724 2.10117,1.30363c-0.12171,0.19859 -0.23062,0.38116 -0.40358,0.66943c1.2812,2.03391 2.58482,4.10625 3.88845,6.17539c0.05765,-0.02562 0.11211,-0.05125 0.16976,-0.07687c-0.19763,-0.81196 -0.39814,-1.62681 -0.59608,-2.43909l-0.04132,-0.05285l0.00224,-0.00481l-0.00544,0.00481c-0.19218,-0.28507 -0.38756,-0.57013 -0.57974,-0.8552c-0.19218,-0.28187 -0.38116,-0.56693 -0.57334,-0.8488l0.0016,-0.0016c-0.10217,-0.09225 -0.20723,-0.18802 -0.30909,-0.28347c0,0 0.03524,-0.03844 0.03844,-0.04164c0.10249,0.09609 0.20819,0.19218 0.31069,0.28827l-0.00192,0.00192c0.18866,0.28443 0.38019,0.56885 0.56885,0.85328c0.19538,0.28507 0.39077,0.56693 0.58615,0.852l-0.01537,0.01282l0.01826,0.07527c0.59191,0.75431 1.18703,1.50925 1.80041,2.28855zM279.35219,181.34115c0.58615,-1.33566 2.07875,-2.33499 3.43683,-2.4503c-0.4196,0.70466 -1.1787,0.79435 -1.69759,1.20753c-0.56053,0.43881 -1.15949,0.82958 -1.73923,1.24276zM276.59762,179.99268c-0.01794,0.0034 -0.03588,0.00685 -0.05285,0.01015l-0.0157,0.02104l-0.0016,0.00212c-0.02402,0.03158 -0.04132,0.05454 -0.04164,0.05442c-0.00033,-0.00013 0.01537,-0.02156 0.05669,-0.0771c-0.05221,0.01021 -0.09353,0.01877 -0.09353,0.01874c0,0 0.02626,-0.00544 0.09417,-0.01976l-0.00064,0.00102l0.00224,-0.00048c0.00896,-0.0115 0.01793,-0.02361 0.02722,-0.03578c0.01698,-0.01252 0.03459,-0.02546 0.04933,-0.03635c0.01698,-0.01247 0.0301,-0.02223 0.03491,-0.02569c0.0016,-0.00208 0.00224,-0.00231 0.00128,-0.00093c-0.00321,0.00635 -0.03139,0.04702 -0.05958,0.08792zM280.9665,181.94972c0.83278,-1.21714 1.73923,-1.60791 3.02043,-1.31964c-1.01856,0.44522 -1.96664,0.85841 -3.02043,1.31964zM317.29818,209.24252c-0.26073,0.04708 -0.47565,0.09994 -0.65886,0.14542c-0.31678,0.07815 -0.54035,0.13325 -0.74726,0.09481c-2.45991,-0.47084 -4.9038,-1.01215 -7.21637,-2.24531c0.39557,-0.38436 0.74886,-0.27258 1.09927,-0.16175c0.04676,0.01473 0.09353,0.02979 0.14029,0.04324c1.5983,0.46443 3.1998,0.91926 4.80131,1.36769c0.2146,0.06086 0.44522,0.05765 0.75912,-0.02242c-2.59444,-2.7706 -5.08317,-5.57964 -6.36757,-9.24067c0.28827,0.38116 0.57974,0.76552 0.97691,1.29081c4.31445,0.19538 8.47515,-0.73669 12.4693,-2.93395c-0.78153,-0.24663 -1.54705,-0.57974 -2.3478,-0.72068c-2.97879,-0.52209 -5.77181,-1.59189 -8.49757,-2.83466c-1.15308,-0.52529 -2.17804,-1.34526 -3.23183,-2.07234c-0.22101,-0.15374 -0.3139,-0.49326 -0.33311,-0.84559c1.22355,0.82317 2.4471,1.64314 3.72189,2.50154c3.08449,-2.40225 4.91341,-5.71096 7.69361,-8.44952c-0.59896,-0.13132 -0.99614,-0.25624 -1.40292,-0.30429c-1.51502,-0.17937 -2.96919,-0.51569 -4.42335,-1.03777c-1.55025,-0.55733 -3.23824,-0.76872 -4.88138,-1.02496c-1.68798,-0.26264 -3.39839,-0.39397 -5.09598,-0.59576c-0.44522,-0.05125 -0.88403,-0.14093 -1.63033,-0.25944c0.52849,-0.37796 0.78474,-0.56053 0.83598,-0.59896c2.19726,0.33311 4.18953,0.58615 6.16258,0.94488c1.96344,0.35873 3.90446,0.84239 5.86149,1.23316c1.97305,0.39397 3.95571,0.7431 6.02485,1.13066c-2.65209,3.16777 -5.2241,6.24265 -7.85057,9.3784c1.65916,0.84559 3.5105,1.39331 5.37464,1.90899c1.82251,0.50607 3.64182,1.00894 5.6437,1.56627c-0.86801,0.93528 -1.56627,1.55345 -2.71615,1.72962c-1.10503,0.16976 -2.1332,0.78153 -3.22222,1.09543c-2.25492,0.65342 -4.56108,0.9545 -6.91528,0.852c-0.11307,-0.00416 -0.22741,0.02082 -0.37796,0.05349c-0.08392,0.01826 -0.17905,0.03908 -0.29147,0.05862c1.72642,2.982 4.21516,5.20489 6.64303,7.95306zM283.79796,182.21237c0.55092,-0.56053 1.18191,-0.90645 2.37663,-0.6406c-0.92567,0.37155 -1.57268,0.63419 -2.21969,0.89364c-0.05125,-0.08328 -0.1057,-0.16976 -0.15694,-0.25304zM285.90297,182.84176c-0.03748,-0.00513 -0.07463,-0.01025 -0.11114,-0.01377c0.21332,-0.15855 0.43048,-0.31966 0.73188,-0.54195c-0.05029,0.63356 -0.34176,0.59352 -0.62074,0.55572zM285.75821,182.85298c-0.02819,0.0032 -0.05605,0.00673 -0.08104,0.00993c-0.0442,0.03043 -0.07783,0.05381 -0.07815,0.05349c0,-0.00032 0.02114,-0.01538 0.07527,-0.05317c-0.02146,0.00256 -0.04068,0.00513 -0.05573,0.00704c0.01409,-0.00193 0.03267,-0.00449 0.05637,-0.00769l-0.00064,0.00064l0.00288,-0.00032c0.0173,-0.01217 0.03619,-0.0253 0.05541,-0.03876c0.01953,0.00064 0.03908,0.00193 0.05925,0.00384l-0.03363,0.02499zM254.41039,215.54924c0.67583,0.26264 1.1787,0.55412 1.71361,0.6438c2.72256,0.45163 5.45151,0.88083 8.18368,1.26519c3.24784,0.45483 6.53733,0.70145 9.75315,1.32284c3.89165,0.75271 7.82174,1.07941 11.74221,1.52463c0.87762,0.09929 1.76806,0.09929 2.777,0.15374c0.80715,-3.50729 1.59189,-6.9249 2.31898,-10.08626c-0.24023,-0.81677 -0.40358,-1.37729 -0.60537,-2.07234c-0.29788,-0.12491 -0.71747,-0.37796 -1.1691,-0.48366c-2.91794,-0.69185 -5.81986,-1.4958 -8.76983,-1.99227c-5.67893,-0.9545 -11.35465,-1.98266 -17.12646,-2.22929c-2.32538,-0.09929 -4.65397,-0.17617 -6.98255,-0.24343c-0.6438,-0.01922 -1.22996,0.14734 -1.56307,0.78474c-0.90004,5.13442 -1.1723,9.50331 -0.68224,11.58847c0.16656,-0.07367 0.3171,-0.13773 0.40999,-0.17617zM308.55398,222.15704c-0.60537,-0.82958 -1.01215,-1.3869 -1.47339,-2.01789c0.33311,-0.25944 0.57334,-0.44522 0.91606,-0.71107c-0.01153,-0.34176 0.00224,-0.69313 0.01633,-1.05219c0.03331,-0.84719 0.06791,-1.73378 -0.22453,-2.62487c-0.15374,-0.46764 -0.06406,-1.04738 0.02242,-1.55666c0.38052,-2.19823 0.14093,-4.37563 -0.09865,-6.55367c-0.04068,-0.37027 -0.08136,-0.74054 -0.11915,-1.11112c-0.06726,-0.64701 -0.13132,-1.29402 -0.19858,-1.94102c0.1057,-0.01602 0.2146,-0.03523 0.3203,-0.05125c0.20179,0.98012 0.50607,1.95383 0.58936,2.94356c0.37796,4.45538 0.45483,8.92037 0.35553,13.38856c-0.00641,0.33311 -0.05125,0.65982 -0.1057,1.28761zM256.93115,205.46618c0.11531,0.13132 0.22741,0.25944 0.39077,0.44522c-0.15374,0.21781 -0.28187,0.40037 -0.40999,0.58295c-0.1089,-0.05445 -0.22101,-0.11211 -0.32991,-0.16656v-0.81997c0.11531,-0.01282 0.23061,-0.02883 0.34913,-0.04164zM270.32932,208.8998c-1.02817,0.38757 -1.63674,1.02496 -2.03391,1.87696c-0.57974,1.24276 -0.40358,2.15882 0.58295,3.09731c0.90645,0.86801 2.29015,1.13707 3.3023,0.6438c0.55092,-0.26905 0.79755,-0.8488 0.61498,-1.43495c-0.33631,-1.073 -1.43815,-1.48299 -2.61365,-0.97371c0.33952,0.66943 0.33952,0.66943 1.63033,1.00574c-0.3267,0.33631 -0.54131,0.55733 -0.59576,0.61177c-1.22675,-0.1025 -1.78727,-0.51889 -2.01149,-1.46057c0.13773,-0.26585 0.30749,-0.59576 0.49326,-0.9545c1.25878,-0.35553 2.35741,-0.23061 3.28948,0.7463c0.59256,0.62139 0.70145,1.35807 0.45163,2.12039c-0.24343,0.73669 -0.86801,1.10824 -1.5983,1.27479c-0.6374,0.14734 -4.64115,-0.23382 -5.25933,-0.49967c-0.33952,-0.14734 -0.65021,-0.35233 -0.94168,-0.51248c0.12491,-0.67263 0.19538,-1.26199 0.35233,-1.82251c0.15054,-0.5349 0.29788,-1.11144 0.60857,-1.55345c0.43561,-0.61498 1.00894,-1.14027 1.55666,-1.66556c0.40678,-0.39397 0.86801,-0.73028 1.23316,-1.03137h3.06528c0.34913,-0.54451 0.72388,-1.12746 1.18191,-1.83853c0.30173,0.63644 0.05189,1.06724 -0.17552,1.45929c-0.04036,0.06951 -0.08008,0.13805 -0.11595,0.20627c-0.23382,0.44842 -0.58295,0.83918 -0.82317,1.1787c-0.86481,-0.19218 -1.58548,-0.34593 -2.19405,-0.47404zM254.6378,209.0023c0.5317,0.62779 0.41639,1.01215 0.08328,1.47339c-0.557,-0.40678 -0.38052,-0.80427 -0.10314,-1.42854zM287.8946,209.25534c0.29724,0.16207 0.45674,0.24887 0.47789,0.36162c0.02466,0.13036 -0.13453,0.29532 -0.47789,0.65053zM285.27454,211.65759c-0.34593,0.7431 -0.69505,1.4894 -1.04097,2.23249c-0.15054,-0.96411 0.27546,-1.68478 0.76872,-2.37663c0.09288,0.04805 0.18258,0.09609 0.27226,0.14414zM268.24416,214.69084c0.04485,-0.08648 0.08968,-0.17296 0.13132,-0.25944c-0.30749,-0.40678 -0.61818,-0.81356 -0.88403,-1.1659c-0.07047,-0.51248 -0.12812,-0.94488 -0.19858,-1.46377c-0.92567,0.58295 -0.68224,1.44455 -0.93528,2.21969c0.69825,0.24984 1.29081,0.45803 1.88657,0.66943zM288.66652,212.68576c0.35233,0.60537 0.51248,0.97691 -0.05445,1.37089c-0.40358,-0.40999 -0.4196,-0.76872 0.05445,-1.37089zM285.70695,213.09895c-0.12812,0.2114 -0.25944,0.4196 -0.38757,0.63099c-0.06726,-0.03203 -0.13132,-0.06086 -0.19858,-0.09288c0.09609,-0.23061 0.19218,-0.46443 0.28507,-0.69505c0.1025,0.05125 0.20179,0.1057 0.30108,0.15694zM256.15282,213.09574c-0.02883,0.27546 -0.05765,0.55412 -0.08648,0.82958h-0.30108v-0.86161c0.13132,0.00961 0.25944,0.02242 0.38757,0.03203zM287.59672,216.91692c0.26841,0.69409 -0.0221,0.94361 -0.35009,1.22515c-0.0868,0.07431 -0.17617,0.15086 -0.25848,0.23862c-0.28827,-0.78153 -0.16015,-1.21394 0.60857,-1.46377zM251.07606,219.2295l0.00001,-0.00001h-0.00001zM252.85693,218.77466c0.64701,-0.14734 1.29722,-0.28507 1.95063,-0.40037c1.05379,-0.18898 1.05379,-0.17937 1.66556,-0.69825c-0.51216,0.06438 -1.02688,0.07239 -1.53168,0.08008c-1.47562,0.02274 -2.86796,0.04388 -3.86538,1.47338c0.59256,-0.15374 1.1851,-0.3171 1.78087,-0.45483zM249.94219,218.94123c0,0 0,0 0,-0.00001v0zM250.09914,219.18145c0.02562,0.01282 0.09609,-0.00961 0.11211,-0.03523c0.04452,-0.07271 0.1057,-0.13869 0.16944,-0.20723c0.20275,-0.21877 0.4308,-0.46443 0.22132,-1.04194c-0.30749,0.48686 -0.50287,0.79115 -0.65982,1.04417c0.1057,0.16656 0.12171,0.22101 0.15694,0.24023zM291.5236,229.86347c0.0032,-0.1057 0.0032,-0.2114 0.00641,-0.3171c-0.65342,-0.27226 -1.29722,-0.57013 -1.96024,-0.81677c-3.38878,-1.25558 -6.77435,-2.51116 -9.86525,-4.43296c-1.08902,-0.67583 -2.13961,-1.45416 -3.2991,-1.97626c-4.54186,-2.04672 -9.34637,-3.20941 -14.25016,-4.00055c-0.16367,-0.02659 -0.3283,-0.0599 -0.49358,-0.09321c-0.44906,-0.09033 -0.90068,-0.18129 -1.33854,-0.14382c-1.35167,0.11531 -2.69053,0.34272 -4.03258,0.55092c-1.12105,0.16976 -2.2357,0.37475 -3.26707,0.55092c-0.49006,1.10824 -1.22996,2.09156 -2.04993,2.51756c0.37475,-0.67583 0.7495,-1.34846 1.12426,-2.0243c-0.04805,-0.06086 -0.09288,-0.11851 -0.14093,-0.17937c-0.65021,0.30429 -1.30363,0.61177 -1.95383,0.91606v4.97747c0.21781,0.15694 0.50607,0.25304 0.57974,0.43881c0.78474,1.93782 1.53745,3.88845 2.26452,5.74619c0.49326,0.30749 0.88723,0.55412 1.26199,0.79115c3.39198,-1.37729 6.72311,-2.777 10.08947,-4.08063c0.38852,-0.15022 0.77289,-0.31998 1.15756,-0.49038c1.30651,-0.5775 2.62038,-1.15853 4.137,-0.983c0.1025,0.01249 0.21268,-0.03523 0.31838,-0.08136c0.03011,-0.01313 0.05958,-0.02594 0.0884,-0.03716c1.94423,-0.78153 3.92368,-0.54131 5.89352,-0.15694c1.77767,0.34593 3.53291,0.79435 5.30738,1.15949c0.91926,0.18898 1.86094,0.16976 2.60404,0.96731c0.30429,0.3267 0.96731,0.34593 1.47659,0.45163c0.65342,0.13773 1.31323,0.24663 1.97305,0.3203c1.45416,0.15694 2.91153,0.28507 4.3689,0.426zM255.54746,219.29995c0.00001,0 0.00002,0 0.00002,0c-0.00001,0 -0.00002,0 -0.00003,0.00001zM261.37692,220.06547c0.91286,0.45803 1.88657,0.79435 2.80583,1.45737c-0.06759,0.01025 -0.13837,0.02883 -0.20915,0.0474c-0.15374,0.04068 -0.30653,0.08104 -0.42504,0.03267c-1.27159,-0.51569 -2.48874,-1.20433 -3.79556,-1.57588c-1.3933,-0.39717 -2.86667,-0.50607 -4.20552,-0.72708c1.9314,-0.26264 3.92366,-0.19538 5.82944,0.76552zM246.76481,220.76373c-0.02915,0.31197 -0.1294,0.61017 -0.22901,0.90773c-0.19635,0.58455 -0.39141,1.16525 -0.04324,1.84045c0.34272,-0.56373 0.61818,-1.01535 0.89044,-1.46698c-0.21781,-0.45803 -0.4196,-0.87121 -0.61818,-1.2812zM265.85472,223.24286h-5.1152c0.05765,0.5381 0.12171,1.11785 0.19218,1.78727c-0.36514,0.29147 -0.72068,0.57974 -1.01856,0.81677c-1.47659,-0.16976 -1.60471,-1.31964 -2.04352,-2.38304c-2.04031,-0.00961 -3.90767,0.70466 -5.74619,1.8097c-0.28507,-0.41639 -0.50607,-0.7463 -0.73028,-1.07621c-0.2082,0.02883 -0.41639,0.05765 -0.73028,0.09929c0.33311,-0.89044 0.9545,-1.22996 1.62392,-1.48299c3.12613,-1.18191 6.37077,-1.63353 9.67628,-1.20113c1.36448,0.17937 2.67451,0.75271 4.01016,1.14667c-0.04164,0.16335 -0.08008,0.3235 -0.11851,0.48366zM246.84169,224.85076c0.65982,2.95637 2.43748,4.82373 4.98067,6.11454c-0.37796,-0.99934 -0.75271,-1.99867 -1.13066,-3.00122c-0.76872,-0.44201 -1.1787,-1.10824 -1.45096,-1.96024c-0.35233,-1.09863 -0.86481,-2.14922 -1.75204,-3.1998c-0.25624,0.80395 -0.45163,1.42534 -0.64701,2.04672zM270.49908,225.59386c0.19218,-0.5317 0.29788,-0.82638 0.48045,-1.32925c0.4228,0.72708 0.15374,0.9609 -0.48045,1.32925zM269.49653,225.96861c-0.68544,-0.56693 -0.54131,-1.0666 0.13453,-1.50862zM265.34544,224.75788v0v-0.00001zM263.75771,226.89205v0v-0.00001v0zM263.75771,226.89205c-0.00353,0.01986 -0.00705,0.04003 -0.01025,0.06053l0.00288,0.00256c-0.02402,0.00513 -0.04836,0.00993 -0.07302,0.01442c0.01056,-0.01762 0.02113,-0.03523 0.03138,-0.05285c0.01634,-0.00801 0.03267,-0.01633 0.04901,-0.02466zM263.67731,226.96956c-0.00001,0 -0.00001,0 -0.00002,0l0.00001,-0.00001c0.00001,0 0.00001,0 0.00002,0zM263.67731,226.96957c-0.70851,1.17453 -1.89586,1.62488 -3.13317,1.80809c-0.73861,0.1105 -1.4974,0.0884 -2.25555,0.06598h-0.00096c-0.33951,-0.00993 -0.67936,-0.01985 -1.01695,-0.01793c-1.50221,0.00962 -2.57201,-0.7495 -3.64502,-2.05633c0.16975,0.00801 0.31613,0.0032 0.44201,-0.00096c0.22069,-0.00736 0.37764,-0.01281 0.48366,0.05862c2.73857,1.83853 5.538,1.58229 8.38867,0.30429c0.22452,-0.10217 0.48877,-0.11659 0.73731,-0.16175zM287.40774,237.09906c-0.7495,1.3837 -1.33245,2.81224 -1.80009,4.34007c-0.48045,1.57588 -0.92247,3.10371 -1.10183,4.78529h2.22929c0.01826,-0.08264 0.0426,-0.15823 0.06438,-0.22517c0.03972,-0.12203 0.07014,-0.21556 0.03491,-0.2713c-0.55828,-0.91574 -0.26713,-1.80873 0.01954,-2.68732c0.01922,-0.05893 0.03844,-0.11755 0.05733,-0.17617c0.56373,-1.74564 1.1659,-3.47846 1.75524,-5.2273c-0.35553,-0.15374 -0.81677,-0.35233 -1.25878,-0.5381zM248.21897,237.14069c0.07911,0.17873 0.15823,0.35713 0.23734,0.53426c-0.13357,-0.13965 -0.26713,-0.28027 -0.4007,-0.41895zM248.45632,237.67496c0,0.00001 0.00001,0.00001 0.00001,0.00002c-0.00001,-0.00001 -0.00001,-0.00001 -0.00002,-0.00002zM248.45633,237.67497c0.03299,0.03459 0.06597,0.06885 0.09896,0.10312l-0.00192,0.0016c0.18834,0.28154 0.37379,0.56597 0.55924,0.84719c0,0 -0.03524,0.03844 -0.03844,0.03844c-0.18578,-0.28507 -0.37475,-0.56693 -0.56053,-0.852l0.00641,-0.00576l-0.0032,0.00256c-0.02018,-0.04483 -0.04035,-0.08999 -0.06053,-0.13515zM273.4843,256.47727c-0.23703,2.01469 -0.38116,4.03578 -1.14027,5.96399c-0.39717,1.01215 -0.59576,2.10438 -0.89364,3.15496c-0.07368,0.25624 -0.18898,0.49966 -0.30429,0.80395c-0.45546,-0.3203 -0.41094,-0.70594 -0.36802,-1.07717c0.0285,-0.24503 0.05605,-0.48398 -0.06118,-0.69409c-0.48686,0.95129 -0.66302,1.94102 -0.32991,3.06207c-0.31069,0.08968 -0.54451,0.15694 -0.79435,0.23061c-0.09608,-0.21781 -0.18257,-0.33952 -0.19858,-0.47084c-0.02242,-0.18578 -0.02242,-0.38436 0.01602,-0.56693c0.50191,-2.25844 1.26839,-4.42239 2.31513,-6.48897c-0.00416,-0.00641 -0.00801,-0.01282 -0.01217,-0.01954c0.40999,-0.59576 0.81677,-1.18832 1.10824,-1.61111c-0.27738,-1.21138 -0.04837,-2.24178 0.17168,-3.23279c0.06982,-0.3139 0.13868,-0.62395 0.19026,-0.93432c0.22421,-1.34526 0.66943,-2.6553 1.01856,-3.98134c-1.48619,-1.14988 -2.40546,-1.50221 -4.01337,-1.53104c-0.0301,0.12812 -0.06085,0.25656 -0.0916,0.38468c-0.35457,1.47947 -0.70978,2.96278 -0.19986,4.55435c0.51569,-0.36514 0.96411,-0.68224 1.53745,-1.08902c0.25624,0.73348 0.46763,1.34526 0.67583,1.94102c-0.59576,1.8129 -1.20753,3.56495 -1.73603,5.34261c-0.09962,0.33055 -0.09545,0.69217 -0.09065,1.12137c0.00256,0.21972 0.00544,0.45707 -0.00544,0.71715c-0.18578,0.36194 -0.48366,0.94168 -0.79115,1.53424c-1.13835,0.26617 -2.26676,0.19762 -3.40319,0.12876c-1.13387,-0.06886 -2.27541,-0.13805 -3.44163,0.12428c-0.84239,1.12425 -1.1691,2.59123 -1.30363,4.05821c-0.46123,0.22421 -0.83598,0.40678 -1.21394,0.58936c0.03202,0.11531 0.06085,0.23061 0.09288,0.34272c0.66334,-0.01378 1.31931,-0.15919 1.97593,-0.30461c1.16301,-0.25752 2.32762,-0.51536 3.53964,-0.04452c-1.74564,0.31389 -3.48807,0.63099 -5.3266,0.9609c-1.14347,1.65596 -1.4894,3.6258 -1.45096,5.79744c0.81677,0.40678 1.58549,1.07621 2.40866,1.14988c1.57652,0.14414 3.16457,0.15759 4.75454,0.17104c0.63579,0.00513 1.27191,0.01057 1.90771,0.02434c-0.25304,-2.56881 0.01602,-5.02552 0.76552,-7.0306c0.37796,-1.00894 0.58295,-1.14347 1.87376,-1.1787c0.18898,0.2114 0.40999,0.45163 0.60857,0.67263c-0.78794,2.21008 -1.1691,4.41054 -0.82317,6.68147c0.94168,0.04805 1.74884,0.05445 2.54959,0.14414c0.36834,0.04164 0.73508,0.11403 1.10119,0.18641c0.56405,0.11114 1.12682,0.22229 1.69183,0.22037c2.71294,-0.00321 5.43229,-0.00641 8.13243,-0.21781c1.92501,-0.15374 3.82439,-0.64381 5.82947,-1.00254c0.26265,-1.20113 0.53811,-2.39905 0.78474,-3.60659c0.08328,-0.41319 0.19538,-0.73989 0.90004,-0.69185c0.08008,0.37795 0.23382,0.80075 0.24343,1.22675c0.00448,0.28795 -0.0631,0.57878 -0.13068,0.86961c-0.02562,0.11114 -0.05157,0.22197 -0.07335,0.33279c0.72356,-0.34593 0.66014,-1.00767 0.56918,-1.66364c0.35553,-0.20179 0.67583,-0.37796 1.05379,-0.59256v-3.33433c-0.08328,-0.00961 -0.16335,-0.01922 -0.24663,-0.02562c0.26905,-0.7463 0.54131,-1.4926 0.81997,-2.26132c-0.78473,-0.75271 -2.0339,-1.02817 -2.42788,-2.52077c1.09863,0.58936 1.95703,1.04738 2.82185,1.50862c0.36834,-0.70146 0.69825,-1.32284 1.09543,-2.07555c-1.32284,-1.75524 -2.48874,-3.69947 -1.95703,-6.0761c0.47725,-2.14281 0.66623,-4.45538 2.63287,-5.99922c-0.19218,-0.67903 0.30428,-0.96731 0.97371,-1.33245c0.426,0.07047 0.99934,0.1057 1.53104,0.27226c0.05445,0.01698 0.10505,0.03299 0.15278,0.04773c0.66398,0.20852 0.71651,0.22485 1.62809,0.09641c-1.36769,-0.46123 -2.50155,-0.83918 -3.68025,-1.23636c0.37924,-0.94969 0.68897,-1.72193 0.99485,-2.49322c-0.29371,-0.16656 -0.55732,-0.34433 -0.20371,-0.79947c0.2146,0.02242 0.47084,0.04804 0.71747,0.07687c0.42344,-0.78474 0.63068,-1.16878 0.67679,-1.57139c0.0442,-0.3866 -0.05957,-0.78986 -0.26361,-1.58037c-1.1659,-0.86801 -2.45351,-1.82891 -3.65783,-2.72896c-0.57654,0.04485 -0.98332,0.07688 -1.43174,0.11211c-0.08328,-0.39397 -0.15054,-0.70145 -0.21781,-1.02496c-0.50607,0.06085 -0.96731,0.11531 -1.31643,0.15694c-0.54771,-0.25624 -0.98332,-0.46443 -1.39651,-0.65982c-0.88082,2.73216 -1.7072,5.28175 -2.53357,7.84095c0.44522,0.16015 0.7463,0.26905 1.05699,0.38116c0.06085,0.35873 0.11211,0.67263 0.14734,0.87442c0.37155,0.29467 0.65022,0.51569 1.22996,0.97371c-0.22549,0.01602 -0.40646,0.03363 -0.55861,0.04805c-0.27097,0.02595 -0.45002,0.04325 -0.6265,0.02883c-0.36514,-0.02882 -0.72388,-0.11851 -1.073,-0.17937c-1.30042,1.925 -2.16843,3.87884 -2.04352,6.17539c1.21778,0.88563 2.62101,0.95802 4.04091,1.03137c0.96282,0.04933 1.93301,0.09962 2.85836,0.40358v0.72068h-2.27093c-0.56373,2.69693 -1.08582,5.30738 -1.67197,7.89861c-0.1025,0.45483 -0.47725,0.84879 -0.78474,1.37409c-0.34913,-0.29467 -0.54131,-0.45803 -0.73989,-0.62459c1.54385,-2.54318 1.67517,-5.37144 2.31257,-8.21891c-0.66302,0.19858 -1.18832,0.35873 -1.7008,0.51248c-0.17937,0.41319 -0.38116,0.7463 -0.47404,1.10824c-0.40678,1.55666 -0.81036,3.11332 -1.14347,4.686c-0.05958,0.28603 0.02466,0.60601 0.10698,0.9199c0.0285,0.10762 0.05669,0.21492 0.07879,0.31966c0.06086,0.30428 0.16336,0.59896 0.30429,1.10503c-3.35674,-0.11851 -6.53733,-0.24663 -9.94853,-1.11464c-0.73317,-0.41191 -0.63356,-1.11112 -0.51632,-1.93141c0.0647,-0.45579 0.13517,-0.94873 0.07111,-1.45096c-0.20403,0.4718 -0.41415,0.93175 -0.62139,1.38466c-0.94073,2.05697 -1.81258,3.96308 -1.69439,6.15521c2.81224,0.28507 5.47073,0.48045 8.1036,0.84559c2.59764,0.36194 5.25613,0.40999 8.00431,1.1755c-0.3139,0.41319 -0.48686,0.63739 -0.56053,0.73348c-1.22675,-0.27226 -2.27414,-0.56693 -3.34074,-0.73028c-1.64634,-0.25304 -3.3087,-0.38757 -4.95825,-0.62139c-2.22289,-0.3171 -4.43936,-0.45803 -6.69108,-0.25304c-0.69505,0.06406 -1.37409,0 -2.02109,0.54451c-0.13453,-0.3203 -0.21781,-0.51889 -0.3139,-0.7463c0.35233,-0.3235 0.66302,-0.60857 0.97371,-0.89044c0.02242,-2.39584 0.70146,-4.59951 1.85454,-6.66866c0.98011,-1.75845 1.94102,-3.53292 2.97239,-5.26254c0.37475,-0.63099 0.92247,-1.15949 1.41252,-1.76165h5.20168c0.25304,-2.53357 0.71106,-4.95505 2.68732,-6.88646c-1.36127,-0.23703 -2.50795,-0.43561 -3.89805,-0.67904c-2.3414,0.62459 -4.92943,1.31643 -7.6744,2.04672c0.21781,0.44201 0.41959,0.83278 0.60216,1.23636c0.01633,0.03459 -0.0141,0.09 -0.0583,0.1704c-0.02499,0.04581 -0.05477,0.09994 -0.08264,0.16272c-0.35233,-0.14734 -0.70466,-0.29468 -1.07941,-0.45163c-0.13773,0.30749 -0.23061,0.52209 -0.3267,0.73989c0.23702,0.06727 0.4324,0.12171 0.57013,0.16015c-0.51569,2.23569 -1.01215,4.38491 -1.50542,6.53413c-0.1025,-0.00961 -0.205,-0.01922 -0.30429,-0.03203v-1.61015c-0.09065,0.26905 -0.20595,0.53298 -0.23702,0.8094zM288.18287,249.8371c-0.40005,0.93496 -0.80267,1.87728 -0.41319,3.0688h4.67318c0.73028,-1.47659 0.70786,-3.49447 2.44069,-4.86216c-1.41893,-0.24022 -2.65529,-0.45162 -3.97493,-0.67583c0.01056,-0.13325 0.01313,-0.25944 0.01537,-0.37924c0.00481,-0.23958 0.00929,-0.45354 0.07751,-0.64573c0.61177,-1.69439 1.28761,-3.36636 1.87376,-5.07036c0.24343,-0.71106 0.56693,-1.27799 1.39331,-1.60791c-0.7431,2.39264 -1.46057,4.70521 -2.17484,7.00497c1.34846,0.31389 2.6745,0.61818 3.99414,0.94488c0.10249,0.02562 0.16335,0.21781 0.23702,0.3267c-0.04164,0.1057 -0.05445,0.24663 -0.11531,0.26905c-1.25237,0.48686 -1.69439,1.55987 -2.04352,2.73216c-0.27866,0.94168 -0.40358,1.95063 -1.01535,2.8827c-0.44042,-0.01697 -0.88083,-0.0253 -1.32092,-0.03395c-1.72642,-0.03299 -3.45188,-0.06631 -5.18759,-0.60985c0.01922,-2.03391 0.57654,-3.67705 2.06273,-4.907c-0.08712,0.54483 -0.30428,1.05283 -0.52209,1.56274zM253.72176,255.68609c0.51248,0.56053 1.00574,1.12425 1.19152,1.93461c-0.3235,0.2114 -0.62139,0.40358 -1.03457,0.67263c1.13707,0.57654 1.31003,2.04031 2.71294,2.29015c1.75844,-0.63739 3.60017,-1.26198 5.40667,-1.97305c1.80329,-0.70786 3.57456,-1.50541 5.45151,-2.29975c-0.426,-5.54761 -1.47339,-10.84537 -2.69053,-16.23603c-4.1511,1.71041 -8.42711,2.37343 -12.26431,3.88205c-0.18866,2.09188 0.16495,4.05821 0.51248,5.98866c0.20083,1.11657 0.39973,2.2216 0.49006,3.33208c0.30108,0.21461 0.51889,0.37155 0.76552,0.54772c-0.17938,0.426 -0.33632,0.80075 -0.49967,1.18831c-0.23029,-0.02787 -0.4007,-0.04356 -0.56309,-0.05958c0.16816,0.24759 0.32094,0.51088 0.52145,0.7322zM249.25195,241.82829c-0.01378,0.03555 -0.0221,0.05605 -0.01442,0.06566c0.03427,0.04516 0.07431,0.08584 0.11531,0.1262l-0.06726,-0.28635c-0.01185,0.03908 -0.02402,0.07015 -0.03363,0.09449zM293.32049,245.62865c-0.15374,-1.1659 0.4324,-2.80263 1.32604,-3.70908c0.14414,0.82958 -0.58295,2.86669 -1.32604,3.70908zM294.31983,245.82404c0.03844,-0.99614 0.50607,-1.80009 1.04418,-2.78341c0.3267,0.99614 0.1057,1.55666 -1.04418,2.78341zM250.30093,243.84779c0.05765,-0.03844 0.11211,-0.08008 0.16976,-0.11851c-0.14286,-0.1246 -0.28763,-0.25144 -0.43145,-0.37699c0.08712,0.16527 0.17457,0.33119 0.26169,0.4955zM296.96231,244.10402c-0.22421,0.46123 -0.45163,0.92567 -0.67583,1.3869c-0.39397,-0.73348 -0.2082,-1.23316 0.30749,-1.61111c0.12171,0.07687 0.24343,0.15054 0.36834,0.22421zM266.60422,244.32824h0.00001v-0.00001zM266.99499,246.65362c0.81036,-0.19218 1.47018,-0.34913 2.15242,-0.51248c-0.18258,-0.54451 -0.32991,-0.98332 -0.49326,-1.47018c-0.63419,-0.1025 -1.23635,-0.20499 -2.04992,-0.34272c0.13773,0.81996 0.25624,1.51822 0.39077,2.32538zM251.3387,244.76065c-0.25624,-0.07047 -0.45483,-0.12492 -0.91286,-0.24984c0.34273,1.88657 0.67904,3.54893 0.93848,5.2209c0.26265,1.70079 0.45163,3.4144 0.67904,5.16965h1.07269c-0.20916,-0.95225 -0.45387,-1.90163 -0.61466,-2.86029c-0.40678,-2.42467 -0.77833,-4.85255 -1.16269,-7.28043zM270.02824,244.83752l0.00641,-0.05445l-0.09288,0.01602zM273.42983,245.145v-0.08648h-0.37796v0.08648zM277.46241,251.03213c-0.81677,1.37409 -1.21394,2.88911 -1.44455,4.44897c-0.1057,0.70466 -0.13773,1.42214 -0.23382,2.13c-0.03523,0.25304 -0.16335,0.49326 -0.24663,0.73348c-0.66334,-0.10185 -0.63965,-0.51024 -0.61754,-0.88659c0.00224,-0.03811 0.00416,-0.07591 0.00576,-0.11274c0.08328,-2.21968 0.59576,-4.32726 1.62392,-6.30671c0.22741,-0.43881 0.37475,-0.92247 0.63419,-1.57908c1.94103,-1.11785 4.29843,-1.43495 6.64944,-1.75204c0.48045,-0.06406 0.98332,0.01922 1.4958,0.2114c-1.86415,0.65021 -3.85962,0.7463 -5.73658,1.67197c0.33632,0.1057 0.56693,0.17938 0.90645,0.28827c-0.48045,0.67583 -1.13707,0.62779 -1.83212,0.78794c-0.04164,-0.2351 -0.07239,-0.4039 -0.09961,-0.5679c-0.56501,-0.02242 -0.78634,0.37059 -1.00927,0.76616c-0.03139,0.05605 -0.06278,0.11211 -0.09545,0.16688zM270.23963,247.87076c0.79115,0.26264 1.57588,0.55733 2.37983,0.77833c0.29116,0.07976 0.55861,0.23029 0.82606,0.38052c0.46187,0.25976 0.92342,0.51921 1.50573,0.41383c-0.28859,-0.15086 -0.57238,-0.31485 -0.85616,-0.47917c-1.1739,-0.67871 -2.34652,-1.35647 -3.85546,-1.09351zM268.24736,248.15903c-0.06438,0.14254 -0.13132,0.28475 -0.19826,0.4292c0.14061,-0.07879 0.2825,-0.15887 0.42248,-0.23702c-0.07367,-0.06406 -0.15054,-0.12812 -0.22421,-0.19218zM267.63879,250.1513c0.02499,-0.03459 0.04996,-0.06886 0.07495,-0.10314c0.32959,-0.45258 0.63548,-0.87186 0.2793,-1.38178c-0.19603,-0.05573 -0.39494,-0.11243 -0.68417,-0.19346c0.12492,0.63419 0.22741,1.15629 0.32991,1.67838zM269.44785,249.10327c0.07142,-0.12652 0.14446,-0.25464 0.21524,-0.38052c-0.05445,-0.01922 -0.11211,-0.04164 -0.16656,-0.06086c-0.01537,0.14798 -0.03267,0.29436 -0.04868,0.44137zM278.6677,250.044l0.00576,-0.00096c0.08457,-0.0647 0.05542,-0.04356 -0.00576,0.00096zM269.05132,250.9008c0.02434,-0.20563 0.04708,-0.41094 0.07079,-0.61658c-0.07719,0.18834 -0.15311,0.37635 -0.23094,0.56213c0.05445,0.01922 0.1057,0.03524 0.16015,0.05445zM290.09186,252.56316c-0.41319,-0.26905 -0.81677,-0.52849 -1.14347,-0.73989c0.04004,-0.96571 0.56501,-1.00894 1.07717,-1.05123c0.30493,-0.02499 0.60537,-0.04965 0.79659,-0.26841c0.18769,0.48622 0.29051,0.75334 0.24247,0.98973c-0.05862,0.28859 -0.34272,0.53106 -0.97275,1.0698zM274.48682,252.33895l-0.07687,-0.00641l0.02883,0.12171zM268.07119,253.19735c0.23446,-0.22069 0.34368,-0.3235 0.32767,-0.39974c-0.0141,-0.06662 -0.12331,-0.11274 -0.32767,-0.19923zM274.10246,253.30625c-0.01794,0.21973 -0.03203,0.44554 -0.04516,0.67103c0.06086,-0.21716 0.12203,-0.43401 0.18289,-0.64861c-0.04485,-0.00641 -0.09288,-0.01602 -0.13773,-0.02242zM268.63813,255.61242c0.07687,0 0.15694,0.0032 0.23382,0.0032c0.13132,-0.27546 0.26264,-0.55092 0.47404,-0.99293c-0.27866,-0.24663 -0.55733,-0.49326 -1.0698,-0.94809c0.16335,0.87121 0.26264,1.40612 0.36194,1.93782zM271.23576,254.44651c0,0.00001 0,0.00001 0,0.00002v0zM269.68551,255.13197c-0.60857,1.33245 -1.33566,2.61686 -1.46057,4.13828c-0.08648,1.04738 -0.33311,2.08196 -0.48686,3.00442c-0.63291,0.35585 -1.03746,0.04612 -1.43495,-0.25816c-0.37891,-0.29019 -0.75174,-0.57526 -1.31003,-0.27354c-0.01602,0.19858 -0.03844,0.49646 -0.07047,0.87121c1.26519,0.07047 2.42468,0.13453 3.67705,0.20499c1.13387,-2.6809 2.03391,-5.38104 2.63607,-8.37264c-1.14347,0.1089 -1.2844,0.1089 -1.55025,0.68544zM283.7339,258.00827h-0.00001v0zM284.12691,256.93814c0.31582,-0.52753 0.63099,-1.05411 0.12908,-1.79656c-0.49646,-0.04485 -0.96411,-0.08648 -1.34206,-0.11851c-0.5349,0.28507 -0.98332,0.52529 -1.50862,0.80395c-0.20179,0.48686 -0.4292,1.03457 -0.70466,1.704c1.00894,0.16015 1.88336,0.29467 3.03324,0.47725c-0.01121,-0.39493 0.1909,-0.73253 0.39301,-1.07012zM280.8544,255.03267c-0.83278,0.3139 -1.35167,0.50928 -1.84173,0.69505c-0.24984,0.57334 -0.47084,1.08902 -0.71747,1.65595c0.25944,0.09288 0.44522,0.13453 0.60537,0.22421c0.13773,0.07367 0.24663,0.20179 0.51889,0.4292c-0.61177,0.08008 -1.02176,0.13132 -1.53745,0.19858c-0.06086,0.5317 -0.11851,1.03137 -0.18898,1.64634c0.52529,0.19538 0.98012,0.36514 1.45096,0.5381c0.56053,-1.78087 1.07941,-3.40159 1.71041,-5.38745zM286.98174,255.62844c-0.70114,-0.46283 -1.22323,-0.15919 -1.73122,0.13613c-0.07239,0.04196 -0.14414,0.08392 -0.21621,0.12331c-0.20499,0.70786 -0.39077,1.35487 -0.60857,2.10758h1.36128c0.4228,-0.83598 0.80075,-1.58228 1.19472,-2.36702zM248.20616,256.45801c-0.09288,0.92887 -0.16015,1.57588 -0.22101,2.20687c0.47084,0.6438 0.96411,1.10183 1.87056,0.71427c0.34272,-0.54451 0.71747,-1.13387 1.12426,-1.78087h2.33819c0.22901,-0.80748 -0.17617,-1.23956 -0.56565,-1.65467c-0.10634,-0.11339 -0.21172,-0.22581 -0.30236,-0.344c-0.23798,0 -0.47372,-0.01057 -0.70658,-0.02114c-0.52241,-0.0237 -1.03008,-0.04645 -1.5131,0.05317c-0.71107,0.14734 -1.37089,0.55092 -2.0243,0.82638zM267.98344,257.26709c-0.21972,0.10826 -0.44457,0.21588 -0.81869,0.39845c0.65309,0.19602 0.90133,0.10794 0.81869,-0.39845zM283.55453,258.76737v0.00001v0zM283.2858,258.70364c-1.03585,-0.24727 -1.90771,-0.45579 -2.86701,-0.19891c-0.15054,0.61818 -0.28827,1.19152 -0.45803,1.89297c1.0602,0.13773 1.93461,0.24984 2.8795,0.37155c0.24984,-0.70786 0.45483,-1.278 0.71427,-2.00187c-0.09097,-0.02146 -0.18033,-0.04292 -0.26873,-0.06374zM251.21699,258.65208c0.01922,0.07047 0.03844,0.14414 0.06086,0.2146l0.98973,-0.30749c-0.01602,-0.05445 -0.03203,-0.11211 -0.04805,-0.16656c-0.33631,0.08648 -0.66943,0.17296 -1.00254,0.25944zM253.06192,258.49512l0.08648,0.04485l0.01602,-0.05125zM265.77144,258.49192c-0.14093,0.86801 -0.26585,1.63674 -0.39397,2.43108c0.44842,0.19858 0.76232,0.33631 1.10824,0.48686c0.09288,-1.01856 0.17937,-1.92821 0.26905,-2.91794zM284.2656,258.66809c-0.17617,0.71747 -0.33952,1.37729 -0.5349,2.17484h2.27734c0.17296,-0.7495 0.33631,-1.46377 0.50287,-2.17484zM272.78282,267.76782c-0.19538,0.01282 -0.33311,0.02242 -0.44842,0.02883c-0.80395,-0.70786 1.31003,-7.61354 2.80583,-9.12536c0.39525,0.3408 0.22453,0.67135 0.05797,0.99389c-0.01954,0.03811 -0.03939,0.07623 -0.05797,0.11434c-1.01856,2.05313 -1.5951,4.24719 -2.07875,6.47007c-0.11211,0.49967 -0.18578,1.00894 -0.27866,1.51822zM267.47544,258.6777v0.49006c0.0663,-0.14766 0.13228,-0.29371 0.19858,-0.44201c-0.06726,-0.01602 -0.13452,-0.03203 -0.19858,-0.04805zM264.79132,258.90511l-0.16335,-0.17296c-0.1089,0.09609 -0.2146,0.19218 -0.3235,0.28827c0.07687,0.08008 0.15694,0.16335 0.23382,0.24343c0.08328,-0.11851 0.16976,-0.24023 0.25304,-0.35873zM267.4338,260.61872v-1.23156c-0.11083,0.25175 -0.16784,0.39429 -0.17457,0.53938c-0.00801,0.1688 0.05189,0.3408 0.17457,0.69217zM251.08887,260.21194c-0.00641,0.91926 0.4292,1.46377 1.19152,1.90899c0.73028,-0.60537 1.44135,-1.19793 2.14922,-1.78407c-0.90324,-1.22355 -1.66877,-1.24597 -3.34074,-0.12491zM262.5268,260.12545c-0.59256,2.23249 -0.22421,2.90192 1.21714,2.62967c0.14414,-0.92887 0.28507,-1.84173 0.43561,-2.83146c-0.56693,0.06726 -1.09863,0.13453 -1.65275,0.20179zM260.36476,262.18179c0.38757,0.19858 0.77833,0.39717 1.13387,0.57974v-2.71935c-0.27546,0.08328 -0.57334,0.16976 -0.87121,0.25624c-0.09288,0.65982 -0.17617,1.25878 -0.26264,1.88337zM277.29906,260.7084c-0.04164,0.81356 -0.07367,1.45416 -0.1089,2.15562c0.44201,0.07687 0.79435,0.13773 1.26519,0.21781v-2.05953c-0.29147,-0.07687 -0.59896,-0.16015 -1.15629,-0.3139zM252.6199,263.06261c0.57974,0.92823 1.30042,0.80683 1.99772,0.68928l0.02338,-0.00384c0.44842,-0.81036 0.8552,-1.54385 1.30042,-2.35101c-0.31069,-0.16335 -0.62459,-0.3267 -1.01856,-0.5317c-0.76552,0.73348 -1.50221,1.43495 -2.30296,2.19726zM257.66784,261.1408c-0.57334,0.87762 -1.75845,1.27159 -1.95383,2.6681c0.56053,-0.05125 1.04418,-0.09288 1.40932,-0.12491c0.78474,-0.76232 0.89684,-1.55345 0.54451,-2.54318zM279.75256,261.27533c0.03844,0.86481 0.06726,1.50862 0.09929,2.2421c0.88083,0.05765 1.65275,0.1089 2.48233,0.16656c0.14093,-0.81677 0.26585,-1.53104 0.4196,-2.40545c-1.0698,-0.0032 -1.93782,-0.0032 -3.00122,-0.0032zM283.56094,263.72884c0.72068,0.08008 1.35167,0.15054 2.06914,0.23061v-2.24531c-0.68544,-0.05445 -1.31323,-0.1057 -2.06914,-0.16656zM270.88984,263.7993c0.05125,0.01922 0.0993,0.03844 0.15054,0.05765c0.02402,-0.1672 0.04997,-0.33471 0.07463,-0.50191c-0.07462,0.14797 -0.15118,0.29627 -0.22517,0.44426zM288.80425,265.72751c0.68993,-0.71683 1.20817,-0.47052 1.78952,-0.1941c0.03939,0.01858 0.07943,0.03748 0.11947,0.05637c-0.34849,0.1531 -0.54419,0.23927 -0.7479,0.26937c-0.26104,0.03908 -0.53554,-0.01313 -1.16109,-0.13164zM290.21678,267.16566c-0.55412,0.07687 -1.10824,0.15694 -1.72962,0.24343c-0.12812,-0.18258 -0.24984,-0.35233 -0.39397,-0.55733c0.50479,-0.46892 0.96474,-0.35745 1.41156,-0.24919c0.22773,0.05541 0.45194,0.10954 0.67679,0.08584c0.00961,0.16015 0.02242,0.3203 0.03523,0.47725zM290.38974,268.9209c-1.29081,0.13132 -2.52397,-0.09929 -3.89485,-0.60537c0.56084,-0.60729 1.0698,-0.45291 1.54033,-0.31037c0.17937,0.05445 0.35329,0.10698 0.52241,0.11499c0.62459,0.03203 1.24276,0.26585 1.86094,0.41319c-0.00641,0.12812 -0.01922,0.25624 -0.02883,0.38757zM268.97445,276.54086c0.09929,-0.0032 0.19858,-0.00641 0.30108,-0.01282c0.1057,-1.25558 0.15054,-2.52077 0.33631,-3.76673c0.17937,-1.20433 0.50607,-2.38624 0.76872,-3.57776c-0.4292,0.18258 -0.7431,0.43881 -0.82317,0.75271l-0.01313,0.05253c-0.54035,2.15722 -1.08133,4.31861 -0.56981,6.55207zM293.49665,271.77799c1.64634,0.73989 3.12613,1.40932 4.64115,2.09156c0.5349,-0.75912 0.98973,-1.40292 1.52463,-2.16523c-1.57268,-1.0698 -3.27347,-1.42213 -4.74365,-2.01469c-1.00574,0.4292 -0.91926,1.32604 -1.42213,2.08836zM287.84015,272.03422c-0.57654,0.13773 -1.09543,0.23061 -1.53104,-0.28187c0.6374,-0.59896 0.80075,-0.57013 1.53104,0.28187zM287.84015,272.99833c-0.6406,0.15054 -1.04738,0.24343 -1.71041,0.40037c0.66622,0.07687 1.08261,0.12491 1.56947,0.17937c0.37155,0.3235 0.78474,0.67904 1.38049,1.19472c-1.925,0.4228 -3.65142,0.5381 -5.57964,0.50607c0.48654,-0.87186 1.15724,-0.90389 1.83436,-0.93656c0.24599,-0.01185 0.4923,-0.0237 0.73125,-0.07559c-0.43881,-0.09609 -0.79435,-0.17296 -1.1691,-0.25304c0.62779,-1.44135 1.68478,-1.86415 2.94356,-1.01535zM291.39676,273.38301c0.00032,0 0.00256,-0.00897 0.00576,-0.02402l-0.00064,0.00128c-0.00353,0.0157 -0.00513,0.02274 -0.00513,0.02274zM251.29066,290.90634c0,0 0,0 0.00001,-0.00001c0,0 0,0 -0.00001,0zM257.11372,293.60006c0.08937,-0.08584 0.1941,-0.16175 0.2982,-0.23734c0.37891,-0.2745 0.75206,-0.54483 0.35522,-1.26807c-0.34913,0.15694 -0.66302,0.29788 -0.94809,0.426c-1.67197,-0.78794 -3.29269,-1.55025 -4.93903,-2.32538c-0.22101,0.26264 -0.36194,0.43561 -0.58935,0.71106c1.98906,1.07941 3.76673,2.1364 5.82306,2.69373zM251.08246,291.36116c-0.22421,0.17937 -0.52209,0.4196 -0.90965,0.73028c1.50542,1.1787 2.86989,2.24851 4.31124,3.37597c0.62459,-0.44842 1.21073,-0.86801 1.90579,-1.36448c-1.8065,-0.93208 -3.42401,-1.76806 -5.30738,-2.74177zM236.52481,295.28484l0.19218,0.16335c0.16015,-0.18258 0.3171,-0.36514 0.47725,-0.55092l-0.19218,-0.16335c-0.16015,0.18258 -0.3203,0.36834 -0.47725,0.55092zM240.55098,295.73326c-0.02242,-0.11851 -0.04485,-0.24023 -0.06726,-0.35873c-0.57013,-0.17617 -1.14027,-0.35233 -1.76165,-0.54131c-0.40037,0.26905 -0.77192,0.52209 -1.33245,0.90324c0.6374,0.3171 1.08261,0.5381 1.5983,0.79435c0.52849,-0.27226 1.04418,-0.5349 1.56307,-0.79755zM297.43283,295.90142c-0.33504,0.24823 -0.67039,0.49966 -1.00543,0.7479c0.55284,-0.01537 1.05475,-0.09737 1.00543,-0.7479zM295.75189,296.49654c-0.18481,0.07207 -0.3818,0.14574 -0.74342,0.28731c0.6374,0.25752 0.74117,0.0458 0.74342,-0.28731zM293.73015,306.74936c-0.14958,-0.7479 -0.63068,-0.76423 -1.11241,-0.78058c-0.23158,-0.00769 -0.46315,-0.01537 -0.65853,-0.10442c-0.22966,0.5317 -0.34176,0.79115 -0.30717,1.02912c0.03267,0.22645 0.19858,0.43368 0.52177,0.83823c0.52081,-0.32735 1.03874,-0.65502 1.55634,-0.98236zM292.9201,308.17693c0.55412,0.12171 0.98012,0.2146 1.33886,0.29467c0.78922,-0.92599 1.05988,-1.24373 1.36544,-1.28152c0.15919,-0.01986 0.32831,0.03619 0.58519,0.12203c-0.48782,0.48078 -0.7053,0.69505 -0.72644,0.92759c-0.01698,0.18706 0.09385,0.38565 0.29404,0.74438c0.57974,-0.6374 1.14347,-1.25878 1.86094,-2.04993c-1.1787,-0.16656 -2.22289,-0.33632 -3.27027,-0.44522c-0.13324,-0.01537 -0.27962,0.07367 -0.42728,0.16303c-0.06342,0.03843 -0.12716,0.07687 -0.18994,0.10762c-0.24279,0.41703 -0.49134,0.83855 -0.83054,1.41733zM298.09617,307.97514c0.67583,-0.13132 0.90324,-0.43561 1.04418,-0.90645c-0.79115,-0.19858 -0.98012,0.16015 -1.04418,0.90645zM263.75772,226.89204c0.17232,-0.96282 0.84463,-1.57299 1.58773,-2.13416c-0.13197,1.00029 -0.70594,1.68221 -1.58773,2.13416zM222.94586,182.94617c6.79153,-6.7915 14.59105,-12.04988 23.39858,-15.77514c1.12028,-0.47384 2.24707,-0.91858 3.38037,-1.33421l-8.47064,8.58927l-0.48661,0.51506l-0.40075,0.58443l-0.30514,0.63955l-0.19119,0.64239c-4.67366,2.82186 -8.9805,6.20278 -12.92049,10.14278c-6.27082,6.27086 -11.12544,13.47098 -14.56387,21.60035c-3.55928,8.41504 -5.33892,17.2314 -5.33892,26.44905c0,9.21787 1.77964,18.03434 5.33892,26.44938c3.43843,8.12937 8.29306,15.32964 14.56387,21.6008c2.45789,2.45784 5.05854,4.69813 7.80195,6.72086l-0.6868,0.41422l-0.46305,0.29622l-0.42402,0.34914l-0.37882,0.39819l-0.32808,0.44078l-1.52458,2.32927c-2.80649,-2.10268 -5.4734,-4.41764 -8.00072,-6.94487c-6.7915,-6.79133 -12.04988,-14.59091 -15.77514,-23.39877c-3.85748,-9.11978 -5.78622,-18.67152 -5.78622,-28.65522c0,-9.98322 1.92874,-19.53487 5.78622,-28.65496c3.72527,-8.80755 8.98365,-16.60708 15.77514,-23.39858zM327.05343,182.94617c6.79133,6.7915 12.04971,14.59102 15.77514,23.39858c3.85752,9.12008 5.78629,18.67173 5.78629,28.65496c0,9.9837 -1.92876,19.53544 -5.78629,28.65522c-3.72544,8.80742 -8.98383,16.60702 -15.77514,23.39877c-6.08484,6.08484 -12.97908,10.93908 -20.68272,14.56273l-0.032,-0.68946l-0.75701,-4.98023l-0.03872,-0.2162l-0.0014,-0.00697c6.47421,-3.25173 12.31001,-7.47629 17.5074,-12.67368c6.27116,-6.27116 11.12598,-13.47143 14.56445,-21.6008c3.55894,-8.41504 5.33841,-17.2315 5.33841,-26.44938c0,-9.2177 -1.77947,-18.03405 -5.33841,-26.44905c-2.58494,-6.11139 -5.97035,-11.69763 -10.15621,-16.75871l-2.02944,-8.23395l-0.07809,-0.27957l-0.09616,-0.27402l-0.11359,-0.26731l-0.12971,-0.2595l-0.14714,-0.25072l-0.16199,-0.24078l-0.17683,-0.23001l-0.88591,-2.02075c1.16534,1.02923 2.3037,2.09951 3.41507,3.21085zM274.99965,308.61511c-6.73641,0 -13.27629,-0.87817 -19.61963,-2.63451l2.96992,-5.07236c5.39623,1.36257 10.94613,2.04385 16.64971,2.04385c3.37857,0 6.70321,-0.23905 9.97393,-0.71717l1.03592,4.36731l0.1244,1.18639c-3.64976,0.55099 -7.36117,0.82649 -11.13424,0.82649z" data-paper-data="{&quot;isPathIcon&quot;:true}" id="element-id-21087"></path></g><g data-paper-data="{&quot;isPrimaryText&quot;:true}" fill-rule="nonzero" id="element-id-96470"><path d="M186.19001,210.49149l-0.02036,0.27628c-0.06351,0.34085 -0.26688,0.54154 -0.6101,0.60206l-5.30986,0.93997l-1.78774,9.59397l4.61494,2.78935c0.29838,0.18008 0.41582,0.44054 0.35231,0.7814l-0.08051,0.26507c-0.11383,0.16551 -0.27438,0.27563 -0.48167,0.33036c-0.20729,0.05473 -0.39369,0.02519 -0.55919,-0.08864l-18.15694,-10.94538c-0.2746,-0.19639 -0.37827,-0.47504 -0.31102,-0.83594c0.06725,-0.3609 0.26059,-0.56346 0.58002,-0.60767l20.88058,-3.67114c0.1954,-0.04658 0.38086,-0.01202 0.55639,0.10368c0.17553,0.11569 0.28658,0.27124 0.33316,0.46663zM166.57669,214.70997l10.51245,6.37785l1.58599,-8.51126z" data-paper-data="{&quot;glyphName&quot;:&quot;A&quot;,&quot;glyphIndex&quot;:0,&quot;firstGlyphOfWord&quot;:true,&quot;word&quot;:1}" id="element-id-86436"></path><path d="M196.22443,186.65965l-21.78309,3.12964l15.54238,8.10705c0.18083,0.09432 0.30152,0.23779 0.36208,0.4304c0.06056,0.19261 0.04367,0.37933 -0.05065,0.56016c-0.09432,0.18083 -0.23779,0.30152 -0.4304,0.36208c-0.19261,0.06056 -0.37933,0.04367 -0.56016,-0.05065l-17.41398,-9.08329c-0.33649,-0.0605 -0.52519,-0.22794 -0.5661,-0.50231c-0.04091,-0.27437 0.00172,-0.49942 0.12788,-0.67514c0.12616,-0.17572 0.28516,-0.27106 0.47698,-0.28602l21.94818,-3.18155l-15.46101,-8.0646c-0.18083,-0.09432 -0.30152,-0.23779 -0.36208,-0.4304c-0.06056,-0.19261 -0.04367,-0.37933 0.05065,-0.56016c0.09432,-0.18083 0.24015,-0.30604 0.43747,-0.37564c0.19732,-0.0696 0.3864,-0.05723 0.56723,0.03709l17.49535,9.12573c0.18083,0.09432 0.29917,0.24231 0.355,0.44396c0.05584,0.20165 0.03188,0.40193 -0.07187,0.60084c-0.10376,0.19891 -0.27002,0.31922 -0.49879,0.36091z" data-paper-data="{&quot;glyphName&quot;:&quot;N&quot;,&quot;glyphIndex&quot;:1,&quot;word&quot;:1}" id="element-id-82859"></path><path d="M205.60256,173.34711l-14.79776,-13.37497c-0.15131,-0.13676 -0.23205,-0.30596 -0.24223,-0.50761c-0.01018,-0.20165 0.0531,-0.37812 0.18986,-0.52943c0.13676,-0.15131 0.30938,-0.23583 0.51786,-0.25358c0.20848,-0.01775 0.38838,0.04176 0.53968,0.17851l14.79776,13.37497c0.15131,0.13676 0.22863,0.30974 0.23198,0.51895c0.00335,0.20921 -0.06336,0.38947 -0.20012,0.54078c-0.13676,0.15131 -0.30596,0.23205 -0.50761,0.24223c-0.20165,0.01018 -0.37812,-0.0531 -0.52943,-0.18986z" data-paper-data="{&quot;glyphName&quot;:&quot;I&quot;,&quot;glyphIndex&quot;:2,&quot;word&quot;:1}" id="element-id-60385"></path><path d="M231.07213,153.31298l-9.58773,-14.78484l-0.57295,11.71135c0.00228,0.26591 -0.10781,0.471 -0.33026,0.61526l-0.05134,0.03329c-0.23957,0.15536 -0.48028,0.17776 -0.72213,0.0672l-10.90972,-4.22856l9.57108,14.75917c0.11097,0.17112 0.1454,0.35541 0.10329,0.55288c-0.04211,0.19746 -0.14872,0.35168 -0.31984,0.46265c-0.17112,0.11097 -0.35969,0.14817 -0.56571,0.11162c-0.20602,-0.03656 -0.36451,-0.1404 -0.47548,-0.31152l-10.78619,-16.63294c-0.13316,-0.20534 -0.15302,-0.42339 -0.05958,-0.65415l0.01805,-0.08463c0.19798,-0.4444 0.52218,-0.58171 0.97259,-0.41193l12.13401,4.71081l0.62304,-12.98355c-0.00321,-0.19238 0.07669,-0.35966 0.23972,-0.50185c0.16303,-0.14219 0.34074,-0.21489 0.53312,-0.2181c0.3103,0.06617 0.52093,0.18481 0.6319,0.35593l10.78619,16.63294c0.11097,0.17112 0.1454,0.35541 0.10329,0.55288c-0.04211,0.19746 -0.14872,0.35168 -0.31984,0.46265c-0.17112,0.11097 -0.35541,0.1454 -0.55288,0.10329c-0.19746,-0.04211 -0.35168,-0.14872 -0.46265,-0.31984z" data-paper-data="{&quot;glyphName&quot;:&quot;M&quot;,&quot;glyphIndex&quot;:3,&quot;word&quot;:1}" id="element-id-97288"></path><path d="M245.33107,147.00216l-5.08117,-19.28848c-0.05195,-0.19722 -0.02709,-0.38305 0.0746,-0.55747c0.10169,-0.17442 0.25114,-0.28761 0.44837,-0.33957l10.65008,-2.80555c0.19722,-0.05195 0.38305,-0.02709 0.55747,0.0746c0.17442,0.10169 0.28891,0.25607 0.34347,0.46316c0.05455,0.20708 0.03098,0.39784 -0.0707,0.57226c-0.10169,0.17442 -0.25114,0.28761 -0.44837,0.33957l-9.91049,2.61072l2.15872,8.19464l8.66798,-2.28341c0.19722,-0.05195 0.38435,-0.02216 0.56137,0.08939c0.17702,0.11155 0.29151,0.26594 0.34347,0.46316c0.05195,0.19722 0.02709,0.38305 -0.0746,0.55747c-0.10169,0.17442 -0.25114,0.28761 -0.44837,0.33957l-8.66798,2.28341l2.15092,8.16506l9.91049,-2.61072c0.19722,-0.05195 0.38305,-0.02709 0.55747,0.0746c0.17442,0.10169 0.28891,0.25607 0.34347,0.46316c0.05455,0.20708 0.03098,0.39784 -0.0707,0.57226c-0.10169,0.17442 -0.25114,0.28761 -0.44837,0.33957l-10.70925,2.82114c-0.1827,0.02704 -0.35503,-0.00666 -0.51699,-0.10108c-0.16197,-0.09442 -0.26893,-0.24025 -0.32088,-0.43747z" data-paper-data="{&quot;glyphName&quot;:&quot;E&quot;,&quot;glyphIndex&quot;:4,&quot;lastGlyphOfWord&quot;:true,&quot;word&quot;:1}" id="element-id-59324"></path><path d="M294.18085,145.26294c-0.12814,0.01479 -0.2471,0.01066 -0.35688,-0.01238c-0.10978,-0.02304 -0.18044,-0.05871 -0.21199,-0.10701c-0.16708,-0.09758 -0.2617,-0.24248 -0.28388,-0.43469c-0.01996,-0.00419 -0.02575,-0.02624 -0.01737,-0.06616l-0.02366,-0.03622l-4.06103,-21.0145c-0.04214,-0.1964 -0.00339,-0.38103 0.11624,-0.5539c0.11964,-0.17287 0.27766,-0.28037 0.47405,-0.32251c0.1964,-0.04214 0.38208,-0.00838 0.55704,0.10127c0.17496,0.10966 0.28351,0.26269 0.32565,0.45908l3.74017,19.41546l11.26006,-16.26742c0.09758,-0.16708 0.24852,-0.26565 0.4528,-0.29571c0.20429,-0.03007 0.38787,0.01367 0.55076,0.13122c0.16289,0.11754 0.26435,0.2795 0.3044,0.48588c0.04005,0.20638 0.0013,0.39101 -0.11624,0.5539l-12.13534,17.45914c-0.10276,0.29103 -0.28437,0.46131 -0.54484,0.51084z" data-paper-data="{&quot;glyphName&quot;:&quot;V&quot;,&quot;glyphIndex&quot;:5,&quot;firstGlyphOfWord&quot;:true,&quot;word&quot;:2}" id="element-id-56068"></path><path d="M315.33229,151.37923l8.82254,-17.88928c0.09021,-0.18292 0.23091,-0.30682 0.4221,-0.37172c0.19119,-0.06489 0.37824,-0.05224 0.56116,0.03797c0.18292,0.09021 0.3114,0.23316 0.38544,0.42886c0.07404,0.1957 0.06596,0.38501 -0.02425,0.56792l-8.82254,17.88928c-0.09021,0.18292 -0.23548,0.30457 -0.43582,0.36495c-0.20033,0.06038 -0.39196,0.04547 -0.57488,-0.04474c-0.18292,-0.09021 -0.30682,-0.23091 -0.37172,-0.4221c-0.06489,-0.19119 -0.05224,-0.37824 0.03797,-0.56116z" data-paper-data="{&quot;glyphName&quot;:&quot;I&quot;,&quot;glyphIndex&quot;:6,&quot;word&quot;:2}" id="element-id-52653"></path><path d="M329.3283,159.70603l12.73479,-15.35216c0.13021,-0.15698 0.29583,-0.24483 0.49687,-0.26356c0.20103,-0.01873 0.38003,0.03701 0.53701,0.16722l8.47665,7.03148c0.15698,0.13021 0.24483,0.29583 0.26356,0.49687c0.01873,0.20103 -0.04026,0.38396 -0.17698,0.54878c-0.13672,0.16482 -0.3056,0.2566 -0.50663,0.27534c-0.20103,0.01873 -0.38003,-0.03701 -0.53701,-0.16722l-7.88799,-6.54318l-5.41033,6.52231l6.89905,5.72284c0.15698,0.13021 0.24157,0.29976 0.2538,0.50864c0.01222,0.20888 -0.04677,0.39181 -0.17698,0.54878c-0.13021,0.15698 -0.29583,0.24483 -0.49687,0.26356c-0.20103,0.01873 -0.38003,-0.03701 -0.53701,-0.16722l-6.89905,-5.72284l-5.3908,6.49877l7.88799,6.54318c0.15698,0.13021 0.24483,0.29583 0.26356,0.49687c0.01873,0.20103 -0.04026,0.38396 -0.17698,0.54878c-0.13672,0.16482 -0.3056,0.2566 -0.50663,0.27534c-0.20103,0.01873 -0.38003,-0.03701 -0.53701,-0.16722l-8.52374,-7.07054c-0.12826,-0.13289 -0.20108,-0.29267 -0.21848,-0.47934c-0.0174,-0.18667 0.03901,-0.3585 0.16923,-0.51547z" data-paper-data="{&quot;glyphName&quot;:&quot;E&quot;,&quot;glyphIndex&quot;:7,&quot;word&quot;:2}" id="element-id-962"></path><path d="M356.43855,193.98927c-0.13499,-0.2282 -0.11595,-0.47643 0.05712,-0.74468c0.03511,-0.02077 0.05625,-0.04512 0.06342,-0.07306l8.3655,-11.27544l-13.92603,1.8753c-0.08777,0.05192 -0.22944,0.05278 -0.425,0.00259c-0.19161,-0.12362 -0.32376,-0.24687 -0.39644,-0.36975c-0.09345,-0.15799 -0.11688,-0.32778 -0.07027,-0.50937c0.04661,-0.1816 0.12616,-0.31751 0.23865,-0.40775l12.699,-17.10897c0.11645,-0.16367 0.27623,-0.26411 0.47933,-0.30132c0.20311,-0.03721 0.38649,0.00241 0.55016,0.11886c0.16367,0.11645 0.26411,0.27623 0.30132,0.47933c0.03721,0.20311 -0.00241,0.38649 -0.11886,0.55016l-11.77296,15.85029l13.8578,-1.87048c0.34638,-0.01533 0.60264,0.11744 0.76878,0.39831c0.16614,0.28086 0.15909,0.56939 -0.02115,0.86558l-8.32841,11.21796l19.56083,-2.68483c0.50041,-0.03535 0.77707,0.19199 0.82997,0.68201c0.02324,0.19952 -0.03035,0.37932 -0.16077,0.53941c-0.13042,0.16009 -0.29539,0.25175 -0.49491,0.27499l-21.24637,2.89992c-0.30806,0.04005 -0.55233,-0.05242 -0.73281,-0.27741z" data-paper-data="{&quot;glyphName&quot;:&quot;W&quot;,&quot;glyphIndex&quot;:8,&quot;word&quot;:2}" id="element-id-81806"></path><path d="M380.05014,209.47934c-1.99828,0.41012 -3.00848,2.69117 -3.03062,6.84312l0.0111,0.06017c0.00432,2.38423 -0.30819,4.28769 -0.93752,5.71037c-0.71793,1.72938 -1.90424,2.74669 -3.55892,3.05195c-1.65468,0.30526 -3.18699,-0.21571 -4.59693,-1.5629c-1.40994,-1.34719 -2.30731,-3.06374 -2.69212,-5.14965c-0.46836,-2.65119 0.06719,-5.42537 1.60666,-8.32254c0.22159,-0.37271 0.52692,-0.46015 0.91599,-0.26231c0.1626,0.09444 0.27058,0.23007 0.32393,0.40688c0.05336,0.17681 0.03282,0.34652 -0.06162,0.50911c-1.40705,2.60312 -1.8841,5.07616 -1.43113,7.4191c0.34041,1.84522 1.08662,3.30449 2.23864,4.37781c1.08445,1.0443 2.2384,1.4536 3.46187,1.22789c2.24636,-0.41441 3.37554,-2.89369 3.38754,-7.43782l-0.0111,-0.06017c0.00557,-4.91626 1.38225,-7.62785 4.13002,-8.13476c1.56443,-0.28861 3.0004,0.18791 4.30791,1.42957c1.30751,1.24165 2.14442,2.85529 2.51073,4.84091c0.1591,0.86244 0.17372,1.75672 0.04385,2.68284c-0.12987,0.92612 -0.28578,1.65484 -0.46775,2.18615c-0.18196,0.53131 -0.45335,1.2243 -0.81417,2.07896c-0.17408,0.40542 -0.47386,0.52295 -0.89934,0.35257c-0.40172,-0.15402 -0.51739,-0.44377 -0.34702,-0.86925c0.3281,-0.80715 0.5809,-1.46041 0.75838,-1.95979c0.17749,-0.49938 0.32221,-1.14826 0.43416,-1.94664c0.11196,-0.79838 0.10133,-1.55859 -0.03187,-2.28064c-0.31081,-1.68477 -0.99656,-3.04112 -2.05725,-4.06907c-1.02583,-0.95142 -2.09031,-1.32537 -3.19343,-1.12187z" data-paper-data="{&quot;glyphName&quot;:&quot;S&quot;,&quot;glyphIndex&quot;:9,&quot;lastGlyphOfWord&quot;:true,&quot;word&quot;:2}" id="element-id-11597"></path></g><g data-paper-data="{&quot;isMirroredPrimaryText&quot;:true}" fill-rule="nonzero" id="element-id-77854"><path d="M164.89681,263.47612l-0.08051,-0.26507c-0.06351,-0.34085 0.05392,-0.60132 0.35231,-0.7814l4.61494,-2.78935l-1.78774,-9.59397l-5.30986,-0.93997c-0.34322,-0.06052 -0.54658,-0.26121 -0.6101,-0.60206l-0.02036,-0.27628c0.04658,-0.1954 0.15669,-0.35595 0.33036,-0.48167c0.17366,-0.12572 0.35819,-0.16529 0.55359,-0.11872l20.88058,3.67114c0.3269,0.08431 0.52398,0.30691 0.59123,0.66782c0.06725,0.3609 -0.04016,0.6195 -0.32223,0.77579l-18.15694,10.94538c-0.16551,0.11383 -0.35097,0.14838 -0.55639,0.10368c-0.20542,-0.04471 -0.36504,-0.14981 -0.47887,-0.31532zM181.67441,252.47658l-12.10405,-2.16349l1.58599,8.51126z" data-paper-data="{&quot;glyphName&quot;:&quot;A&quot;,&quot;glyphIndex&quot;:0,&quot;firstGlyphOfWord&quot;:true,&quot;word&quot;:1}" id="element-id-37993"></path><path d="M177.67122,293.01771l9.89842,-19.655l-15.54238,8.10705c-0.18083,0.09432 -0.36755,0.11121 -0.56016,0.05065c-0.19261,-0.06056 -0.33607,-0.18125 -0.4304,-0.36208c-0.09432,-0.18083 -0.11121,-0.36755 -0.05065,-0.56016c0.06056,-0.19261 0.18125,-0.33607 0.36208,-0.4304l17.41398,-9.08329c0.24217,-0.24133 0.48746,-0.30027 0.73588,-0.17681c0.24842,0.12346 0.40859,0.28719 0.4805,0.49121c0.07191,0.20402 0.05912,0.38897 -0.03838,0.55484l-9.95032,19.82009l15.46101,-8.0646c0.18083,-0.09432 0.36755,-0.11121 0.56016,-0.05065c0.19261,0.06056 0.33607,0.18125 0.4304,0.36208c0.09432,0.18083 0.11356,0.37207 0.05773,0.57372c-0.05584,0.20165 -0.17417,0.34963 -0.355,0.44396l-17.49535,9.12573c-0.18083,0.09432 -0.36991,0.10669 -0.56723,0.03709c-0.19732,-0.0696 -0.34786,-0.20385 -0.45162,-0.40277c-0.10376,-0.19891 -0.10727,-0.40411 -0.01055,-0.61558z" data-paper-data="{&quot;glyphName&quot;:&quot;N&quot;,&quot;glyphIndex&quot;:1,&quot;word&quot;:1}" id="element-id-19840"></path><path d="M190.57784,310.23285l14.79776,-13.37497c0.15131,-0.13676 0.32778,-0.20005 0.52943,-0.18986c0.20165,0.01018 0.37085,0.09093 0.50761,0.24223c0.13676,0.15131 0.20346,0.33156 0.20012,0.54078c-0.00335,0.20921 -0.08067,0.3822 -0.23198,0.51895l-14.79776,13.37497c-0.15131,0.13676 -0.3312,0.19626 -0.53968,0.17851c-0.20848,-0.01775 -0.3811,-0.10228 -0.51786,-0.25358c-0.13676,-0.15131 -0.20005,-0.32778 -0.18986,-0.52943c0.01018,-0.20165 0.09093,-0.37085 0.24223,-0.50761z" data-paper-data="{&quot;glyphName&quot;:&quot;I&quot;,&quot;glyphIndex&quot;:2,&quot;word&quot;:1}" id="element-id-58193"></path><path d="M220.0529,333.67916l9.58773,-14.78484l-10.92637,4.25422c-0.24185,0.11055 -0.474,0.0937 -0.69646,-0.05056l-0.05134,-0.03329c-0.23957,-0.15536 -0.35821,-0.36599 -0.35593,-0.6319l-0.5896,-11.68568l-9.57108,14.75917c-0.11097,0.17112 -0.26519,0.27773 -0.46265,0.31984c-0.19746,0.04211 -0.38175,0.00767 -0.55288,-0.10329c-0.17112,-0.11097 -0.28201,-0.26796 -0.33267,-0.47097c-0.05066,-0.20301 -0.02051,-0.39008 0.09046,-0.5612l10.78619,-16.63294c0.13316,-0.20534 0.32414,-0.31243 0.57294,-0.32124l0.08463,-0.01805c0.4865,-0.00052 0.74412,0.23946 0.77284,0.71995l0.64871,13.0002l12.10834,-4.72745c0.17434,-0.08141 0.35966,-0.07669 0.55599,0.01416c0.19632,0.09085 0.33519,0.22344 0.4166,0.39778c0.06617,0.3103 0.04377,0.55101 -0.0672,0.72213l-10.78619,16.63294c-0.11097,0.17112 -0.26519,0.27773 -0.46265,0.31984c-0.19746,0.04211 -0.38175,0.00767 -0.55288,-0.10329c-0.17112,-0.11097 -0.27773,-0.26519 -0.31984,-0.46265c-0.04211,-0.19746 -0.00767,-0.38175 0.10329,-0.55288z" data-paper-data="{&quot;glyphName&quot;:&quot;M&quot;,&quot;glyphIndex&quot;:3,&quot;word&quot;:1}" id="element-id-52735"></path><path d="M240.17197,342.582l5.08117,-19.28848c0.05195,-0.19722 0.16514,-0.34668 0.33957,-0.44837c0.17442,-0.10169 0.36025,-0.12656 0.55747,-0.0746l10.65008,2.80555c0.19722,0.05195 0.34668,0.16514 0.44837,0.33957c0.10169,0.17442 0.12526,0.36518 0.0707,0.57226c-0.05455,0.20708 -0.16904,0.36147 -0.34347,0.46316c-0.17442,0.10169 -0.36025,0.12656 -0.55747,0.0746l-9.91049,-2.61072l-2.15872,8.19464l8.66798,2.28341c0.19722,0.05195 0.34538,0.17008 0.44447,0.35436c0.09909,0.18429 0.12266,0.37504 0.0707,0.57226c-0.05195,0.19722 -0.16514,0.34668 -0.33957,0.44837c-0.17442,0.10169 -0.36025,0.12656 -0.55747,0.0746l-8.66798,-2.28341l-2.15092,8.16506l9.91049,2.61072c0.19722,0.05195 0.34668,0.16514 0.44837,0.33957c0.10169,0.17442 0.12526,0.36518 0.0707,0.57226c-0.05455,0.20708 -0.16904,0.36147 -0.34347,0.46316c-0.17442,0.10169 -0.36025,0.12656 -0.55747,0.0746l-10.70925,-2.82114c-0.17231,-0.06648 -0.30567,-0.18071 -0.4001,-0.34267c-0.09442,-0.16197 -0.11566,-0.34156 -0.06371,-0.53878z" data-paper-data="{&quot;glyphName&quot;:&quot;E&quot;,&quot;glyphIndex&quot;:4,&quot;lastGlyphOfWord&quot;:true,&quot;word&quot;:1}" id="element-id-54620"></path><path d="M298.61701,345.87496c-0.11138,0.06505 -0.22197,0.1091 -0.33175,0.13214c-0.10978,0.02304 -0.18882,0.01879 -0.23712,-0.01275c-0.19221,-0.02218 -0.33711,-0.11681 -0.43469,-0.28388c-0.01996,0.00419 -0.03413,-0.01368 -0.04251,-0.0536l-0.03622,-0.02366l-12.16676,-17.60884c-0.11754,-0.16289 -0.15629,-0.34752 -0.11624,-0.5539c0.04005,-0.20638 0.14151,-0.36834 0.3044,-0.48588c0.16289,-0.11754 0.34647,-0.16128 0.55076,-0.13122c0.20429,0.03007 0.3652,0.12654 0.48274,0.28943l11.23012,16.27371l3.77011,-19.42174c0.02218,-0.19221 0.12075,-0.34314 0.29571,-0.4528c0.17496,-0.10966 0.36064,-0.14342 0.55704,-0.10127c0.1964,0.04214 0.35442,0.14964 0.47405,0.32251c0.11964,0.17287 0.15839,0.3575 0.11624,0.5539l-4.09245,20.8648c0.02291,0.30778 -0.07492,0.53671 -0.2935,0.68678z" data-paper-data="{&quot;glyphName&quot;:&quot;V&quot;,&quot;glyphIndex&quot;:5,&quot;firstGlyphOfWord&quot;:true,&quot;word&quot;:2}" id="element-id-71449"></path><path d="M324.29014,336.78427l-8.82254,-17.88928c-0.09021,-0.18292 -0.10287,-0.36997 -0.03797,-0.56116c0.06489,-0.19119 0.1888,-0.33189 0.37172,-0.4221c0.18292,-0.09021 0.37454,-0.10512 0.57488,-0.04474c0.20033,0.06038 0.34561,0.18204 0.43582,0.36495l8.82254,17.88928c0.09021,0.18292 0.09829,0.37223 0.02425,0.56792c-0.07404,0.1957 -0.20252,0.33865 -0.38544,0.42886c-0.18292,0.09021 -0.36997,0.10287 -0.56116,0.03797c-0.19119,-0.06489 -0.33189,-0.1888 -0.4221,-0.37172z" data-paper-data="{&quot;glyphName&quot;:&quot;I&quot;,&quot;glyphIndex&quot;:6,&quot;word&quot;:2}" id="element-id-65011"></path><path d="M342.25841,325.88144l-12.73479,-15.35216c-0.13021,-0.15698 -0.18595,-0.33598 -0.16722,-0.53701c0.01873,-0.20103 0.10659,-0.36665 0.26356,-0.49687l8.47665,-7.03148c0.15698,-0.13021 0.33598,-0.18595 0.53701,-0.16722c0.20103,0.01873 0.36991,0.11051 0.50663,0.27534c0.13672,0.16482 0.19572,0.34775 0.17698,0.54878c-0.01873,0.20103 -0.10659,0.36665 -0.26356,0.49687l-7.88799,6.54318l5.41033,6.52231l6.89905,-5.72284c0.15698,-0.13021 0.33923,-0.18203 0.54678,-0.15545c0.20754,0.02658 0.37642,0.11836 0.50663,0.27534c0.13021,0.15698 0.18595,0.33598 0.16722,0.53701c-0.01873,0.20103 -0.10659,0.36665 -0.26356,0.49687l-6.89905,5.72284l5.3908,6.49877l7.88799,-6.54318c0.15698,-0.13021 0.33598,-0.18595 0.53701,-0.16722c0.20103,0.01873 0.36991,0.11051 0.50663,0.27534c0.13672,0.16482 0.19572,0.34775 0.17698,0.54878c-0.01873,0.20103 -0.10659,0.36665 -0.26356,0.49687l-8.52374,7.07054c-0.1543,0.10149 -0.32478,0.14354 -0.51146,0.12615c-0.18667,-0.0174 -0.34511,-0.10458 -0.47533,-0.26156z" data-paper-data="{&quot;glyphName&quot;:&quot;E&quot;,&quot;glyphIndex&quot;:7,&quot;word&quot;:2}" id="element-id-17337"></path><path d="M375.1335,287.06935c-0.13499,0.2282 -0.36171,0.33105 -0.68015,0.30856c-0.03511,-0.02077 -0.06663,-0.02757 -0.09457,-0.0204l-13.91046,-1.90163l8.34992,11.30177c0.08777,0.05192 0.15675,0.17566 0.20694,0.37123c-0.01607,0.22746 -0.06045,0.40263 -0.13313,0.5255c-0.09345,0.15799 -0.23098,0.26028 -0.41257,0.30689c-0.1816,0.04661 -0.33902,0.04234 -0.47229,-0.01279l-21.1099,-2.89027c-0.19952,-0.02324 -0.36449,-0.1149 -0.49491,-0.27499c-0.13042,-0.16009 -0.18401,-0.33989 -0.16077,-0.53941c0.02324,-0.19952 0.1149,-0.36449 0.27499,-0.49491c0.16009,-0.13042 0.33989,-0.18401 0.53941,-0.16077l19.56083,2.68483l-8.31283,-11.24429c-0.18024,-0.29619 -0.18729,-0.58471 -0.02115,-0.86558c0.16614,-0.28086 0.4224,-0.41363 0.76878,-0.39831l13.84222,1.89681l-11.77296,-15.85029c-0.27196,-0.42154 -0.20596,-0.77348 0.19803,-1.05583c0.16367,-0.11645 0.34706,-0.15607 0.55016,-0.11886c0.20311,0.03721 0.36288,0.13765 0.47933,0.30132l12.77317,17.22393c0.18345,0.2507 0.22005,0.50931 0.10978,0.77583z" data-paper-data="{&quot;glyphName&quot;:&quot;W&quot;,&quot;glyphIndex&quot;:8,&quot;word&quot;:2}" id="element-id-94175"></path><path d="M369.64068,258.60015c2.01308,0.3299 3.7707,-1.44053 5.27288,-5.31128l0.0111,-0.06017c0.8467,-2.22883 1.81783,-3.89547 2.91338,-4.99995c1.28775,-1.35937 2.75896,-1.88642 4.41365,-1.58116c1.65468,0.30526 2.90024,1.33869 3.73666,3.1003c0.83642,1.76161 1.06222,3.68536 0.67741,5.77126c-0.50847,2.64379 -1.99865,5.04426 -4.47054,7.2014c-0.34,0.26911 -0.65643,0.24184 -0.94929,-0.0818c-0.1182,-0.14624 -0.17067,-0.31147 -0.15743,-0.49568c0.01324,-0.18421 0.09299,-0.33541 0.23923,-0.45361c2.24328,-1.9297 3.57135,-4.06973 3.9842,-6.42007c0.34041,-1.84522 0.16401,-3.4747 -0.52919,-4.88842c-0.64043,-1.36251 -1.57238,-2.15662 -2.79585,-2.38233c-2.24636,-0.41441 -4.18586,1.49875 -5.81851,5.73947l-0.0111,0.06017c-1.75942,4.59065 -4.01302,6.63252 -6.7608,6.1256c-1.56443,-0.28861 -2.73584,-1.24615 -3.51423,-2.87261c-0.77839,-1.62646 -0.98444,-3.43251 -0.61812,-5.41813c0.1591,-0.86244 0.46455,-1.70307 0.91632,-2.52189c0.45178,-0.81882 0.85745,-1.44393 1.21702,-1.87534c0.35957,-0.43141 0.86037,-0.98194 1.50239,-1.6516c0.30728,-0.31662 0.62926,-0.31944 0.96594,-0.00846c0.32032,0.28723 0.32499,0.59918 0.01401,0.93586c-0.59451,0.63694 -1.06376,1.157 -1.40775,1.56018c-0.34399,0.40318 -0.71072,0.9577 -1.10018,1.66358c-0.38946,0.70588 -0.6508,1.41984 -0.784,2.14188c-0.31081,1.68477 -0.15418,3.19653 0.4699,4.53528c0.61882,1.25483 1.47979,1.98399 2.58292,2.1875z" data-paper-data="{&quot;glyphName&quot;:&quot;S&quot;,&quot;glyphIndex&quot;:9,&quot;lastGlyphOfWord&quot;:true,&quot;word&quot;:2}" id="element-id-24472"></path></g><g data-paper-data="{&quot;isContainerElementsWrapper&quot;:true}" fill-rule="evenodd" id="element-id-69719"><path d="M183.78292,143.78316c-11.90235,11.9023 -21.11738,25.57018 -27.64512,41.00364c-6.75876,15.97977 -10.13814,32.71749 -10.13814,50.21315c0,17.49554 3.37938,34.23323 10.13814,50.21306c6.52798,15.43449 15.74302,29.10215 27.64512,41.00298c11.9036,11.90399 25.57145,21.11919 41.00355,27.64559c15.98078,6.75895 32.7185,10.13842 50.21315,10.13842c17.49535,0 34.23294,-3.37947 50.21277,-10.13842c15.43449,-6.52767 29.10247,-15.74286 41.00393,-27.64559c11.90272,-11.90272 21.11761,-25.57038 27.64464,-41.00298c6.75958,-15.98046 10.13937,-32.71815 10.13937,-50.21306c0,-17.49642 -3.37979,-34.23414 -10.13937,-50.21315c-6.5283,-15.43431 -15.74318,-29.10219 -27.64464,-41.00364c-11.90272,-11.90216 -25.5707,-21.11716 -41.00393,-27.64502c-15.9792,-6.75876 -32.71679,-10.13814 -50.21277,-10.13814c-17.49579,0 -34.23351,3.37938 -50.21315,10.13814c-15.43334,6.52767 -29.10119,15.74267 -41.00355,27.64502zM148.5447,234.99995c0,-17.15172 3.3124,-33.55894 9.93719,-49.22168c6.39888,-15.12878 15.43244,-28.52728 27.10066,-40.19549c11.66825,-11.66829 25.06672,-20.70181 40.19539,-27.10056c15.66286,-6.62479 32.07009,-9.93719 49.22168,-9.93719c17.15222,0 33.55932,3.3124 49.2213,9.93719c15.12864,6.39882 28.52742,15.43234 40.19634,27.10056c11.66765,11.6678 20.70117,25.06629 27.10056,40.19549c6.62435,15.66261 9.93653,32.06984 9.93653,49.22168c0,17.15051 -3.31218,33.55771 -9.93653,49.22158c-6.39813,15.12738 -15.43165,28.52584 -27.10056,40.19539c-11.66765,11.66829 -25.06643,20.70212 -40.19634,27.10151c-15.66261,6.62372 -32.06971,9.93558 -49.2213,9.93558c-17.15108,0 -33.55831,-3.31186 -49.22168,-9.93558c-15.12768,-6.39876 -28.52615,-15.43259 -40.19539,-27.10151c-11.66841,-11.66765 -20.70196,-25.06612 -27.10066,-40.19539c-6.62479,-15.66261 -9.93719,-32.06981 -9.93719,-49.22158z" data-paper-data="{&quot;isBaseLogoContainer&quot;:true}" id="element-id-68592"></path></g></g></g><rect data-element-id="element-id-69719" stroke-width="2" fill="transparent" class="invisible-element-box grouping-element" x="146" y="106" width="258" height="258" data-element-name="isContainerElementsWrapper"></rect><rect data-element-id="element-id-68592" stroke-width="2" fill="transparent" class="invisible-element-box individual-element" x="146" y="106" width="258" height="258"></rect><rect data-element-id="element-id-96470" stroke-width="2" fill="transparent" class="invisible-element-box grouping-element" x="164" y="123" width="223" height="103" data-element-name="isPrimaryText"></rect><rect data-element-id="element-id-77854" stroke-width="2" fill="transparent" class="invisible-element-box grouping-element" x="162" y="245" width="225" height="101" data-element-name="isMirroredPrimaryText"></rect><rect data-element-id="element-id-26260" stroke-width="2" fill="transparent" class="invisible-element-box grouping-element" x="201" y="159" width="147" height="152" data-element-name="isIcon"></rect><rect data-element-id="element-id-21087" stroke-width="2" fill="transparent" class="invisible-element-box individual-element" x="201" y="159" width="147" height="152"></rect><rect data-element-id="element-id-81806" stroke-width="2" fill="transparent" class="invisible-element-box individual-element" x="350" y="165" width="29" height="29"></rect><rect data-element-id="element-id-94175" stroke-width="2" fill="transparent" class="invisible-element-box individual-element" x="346" y="269" width="29" height="29"></rect><rect data-element-id="element-id-97288" stroke-width="2" fill="transparent" class="invisible-element-box individual-element" x="206" y="136" width="26" height="27"></rect><rect data-element-id="element-id-52735" stroke-width="2" fill="transparent" class="invisible-element-box individual-element" x="206" y="308" width="26" height="27"></rect><rect data-element-id="element-id-82859" stroke-width="2" fill="transparent" class="invisible-element-box individual-element" x="171" y="176" width="26" height="23"></rect><rect data-element-id="element-id-19840" stroke-width="2" fill="transparent" class="invisible-element-box individual-element" x="171" y="271" width="26" height="23"></rect><rect data-element-id="element-id-962" stroke-width="2" fill="transparent" class="invisible-element-box individual-element" x="329" y="144" width="23" height="24"></rect><rect data-element-id="element-id-17337" stroke-width="2" fill="transparent" class="invisible-element-box individual-element" x="329" y="302" width="23" height="24"></rect><rect data-element-id="element-id-56068" stroke-width="2" fill="transparent" class="invisible-element-box individual-element" x="289" y="123" width="18" height="23"></rect><rect data-element-id="element-id-71449" stroke-width="2" fill="transparent" class="invisible-element-box individual-element" x="285" y="323" width="18" height="23"></rect><rect data-element-id="element-id-59324" stroke-width="2" fill="transparent" class="invisible-element-box individual-element" x="240" y="124" width="17" height="24"></rect><rect data-element-id="element-id-54620" stroke-width="2" fill="transparent" class="invisible-element-box individual-element" x="240" y="323" width="17" height="24"></rect><rect data-element-id="element-id-24472" stroke-width="2" fill="transparent" class="invisible-element-box individual-element" x="365" y="245" width="22" height="18"></rect><rect data-element-id="element-id-11597" stroke-width="2" fill="transparent" class="invisible-element-box individual-element" x="365" y="208" width="22" height="17"></rect><rect data-element-id="element-id-86436" stroke-width="2" fill="transparent" class="invisible-element-box individual-element" x="164" y="210" width="22" height="16"></rect><rect data-element-id="element-id-37993" stroke-width="2" fill="transparent" class="invisible-element-box individual-element" x="162" y="248" width="22" height="16"></rect><rect data-element-id="element-id-60385" stroke-width="2" fill="transparent" class="invisible-element-box individual-element" x="191" y="159" width="16" height="15"></rect><rect data-element-id="element-id-58193" stroke-width="2" fill="transparent" class="invisible-element-box individual-element" x="190" y="297" width="16" height="15"></rect><rect data-element-id="element-id-52653" stroke-width="2" fill="transparent" class="invisible-element-box individual-element" x="315" y="133" width="10" height="19"></rect><rect data-element-id="element-id-65011" stroke-width="2" fill="transparent" class="invisible-element-box individual-element" x="315" y="318" width="10" height="19"></rect></svg>